%FSTAX25Y25*%
%MOIN*%
%SFA1B1*%

%IPPOS*%
%AMD175*
4,1,8,-0.033500,0.020700,-0.033500,-0.020700,-0.020700,-0.033500,0.020700,-0.033500,0.033500,-0.020700,0.033500,0.020700,0.020700,0.033500,-0.020700,0.033500,-0.033500,0.020700,0.0*
1,1,0.025720,-0.020700,0.020700*
1,1,0.025720,-0.020700,-0.020700*
1,1,0.025720,0.020700,-0.020700*
1,1,0.025720,0.020700,0.020700*
%
%AMD180*
4,1,8,0.045400,0.010300,0.010300,0.045400,-0.010300,0.045400,-0.045400,0.010300,-0.045400,-0.010300,-0.010300,-0.045400,0.010300,-0.045400,0.045400,-0.010300,0.045400,0.010300,0.0*
1,1,0.029260,0.035100,0.000000*
1,1,0.029260,0.000000,0.035100*
1,1,0.029260,-0.035100,0.000000*
1,1,0.029260,0.000000,-0.035100*
%
%AMD188*
4,1,8,0.025500,0.040400,-0.025500,0.040400,-0.040400,0.025500,-0.040400,-0.025500,-0.025500,-0.040400,0.025500,-0.040400,0.040400,-0.025500,0.040400,0.025500,0.025500,0.040400,0.0*
1,1,0.029860,0.025500,0.025500*
1,1,0.029860,-0.025500,0.025500*
1,1,0.029860,-0.025500,-0.025500*
1,1,0.029860,0.025500,-0.025500*
%
%AMD189*
4,1,8,-0.017500,-0.039000,0.017500,-0.039000,0.039000,-0.017500,0.039000,0.017500,0.017500,0.039000,-0.017500,0.039000,-0.039000,0.017500,-0.039000,-0.017500,-0.017500,-0.039000,0.0*
1,1,0.043000,-0.017500,-0.017500*
1,1,0.043000,0.017500,-0.017500*
1,1,0.043000,0.017500,0.017500*
1,1,0.043000,-0.017500,0.017500*
%
%AMD191*
4,1,8,0.059100,-0.038600,0.059100,0.038600,0.038600,0.059100,-0.038600,0.059100,-0.059100,0.038600,-0.059100,-0.038600,-0.038600,-0.059100,0.038600,-0.059100,0.059100,-0.038600,0.0*
1,1,0.041080,0.038600,-0.038600*
1,1,0.041080,0.038600,0.038600*
1,1,0.041080,-0.038600,0.038600*
1,1,0.041080,-0.038600,-0.038600*
%
%AMD195*
4,1,8,0.046600,0.010500,0.010500,0.046600,-0.010500,0.046600,-0.046600,0.010500,-0.046600,-0.010500,-0.010500,-0.046600,0.010500,-0.046600,0.046600,-0.010500,0.046600,0.010500,0.0*
1,1,0.029860,0.036100,0.000000*
1,1,0.029860,0.000000,0.036100*
1,1,0.029860,-0.036100,0.000000*
1,1,0.029860,0.000000,-0.036100*
%
%AMD196*
4,1,8,-0.072900,0.055100,-0.072900,-0.055100,-0.055100,-0.072900,0.055100,-0.072900,0.072900,-0.055100,0.072900,0.055100,0.055100,0.072900,-0.055100,0.072900,-0.072900,0.055100,0.0*
1,1,0.035560,-0.055100,0.055100*
1,1,0.035560,-0.055100,-0.055100*
1,1,0.035560,0.055100,-0.055100*
1,1,0.035560,0.055100,0.055100*
%
%AMD201*
4,1,8,0.054000,-0.021000,0.054000,0.021000,0.041000,0.034000,-0.041000,0.034000,-0.054000,0.021000,-0.054000,-0.021000,-0.041000,-0.034000,0.041000,-0.034000,0.054000,-0.021000,0.0*
1,1,0.026000,0.041000,-0.021000*
1,1,0.026000,0.041000,0.021000*
1,1,0.026000,-0.041000,0.021000*
1,1,0.026000,-0.041000,-0.021000*
%
%ADD174C,0.067060*%
G04~CAMADD=175~8~0.0~0.0~670.6~670.6~128.6~0.0~15~0.0~0.0~0.0~0.0~0~0.0~0.0~0.0~0.0~0~0.0~0.0~0.0~90.0~670.0~670.0*
%ADD175D175*%
%ADD176O,0.059180X0.051310*%
%ADD177O,0.206850X0.114330*%
%ADD178C,0.263900*%
%ADD179C,0.244220*%
G04~CAMADD=180~8~0.0~0.0~788.7~788.7~146.3~0.0~15~0.0~0.0~0.0~0.0~0~0.0~0.0~0.0~0.0~0~0.0~0.0~0.0~315.0~992.0~991.0*
%ADD180D180*%
%ADD181C,0.078870*%
%ADD182R,0.067060X0.067060*%
%ADD183O,0.126110X0.086740*%
%ADD184R,0.067060X0.067060*%
%ADD185C,0.086740*%
%ADD186C,0.063120*%
%ADD187C,0.080830*%
G04~CAMADD=188~8~0.0~0.0~808.3~808.3~149.3~0.0~15~0.0~0.0~0.0~0.0~0~0.0~0.0~0.0~0.0~0~0.0~0.0~0.0~0.0~808.3~808.3*
%ADD188D188*%
G04~CAMADD=189~8~0.0~0.0~780.0~780.0~215.0~0.0~15~0.0~0.0~0.0~0.0~0~0.0~0.0~0.0~0.0~0~0.0~0.0~0.0~180.0~780.0~780.0*
%ADD189D189*%
%ADD190C,0.078000*%
G04~CAMADD=191~8~0.0~0.0~1182.4~1182.4~205.4~0.0~15~0.0~0.0~0.0~0.0~0~0.0~0.0~0.0~0.0~0~0.0~0.0~0.0~270.0~1182.0~1182.0*
%ADD191D191*%
%ADD192C,0.118240*%
%ADD193C,0.067060*%
%ADD194C,0.322000*%
G04~CAMADD=195~8~0.0~0.0~808.3~808.3~149.3~0.0~15~0.0~0.0~0.0~0.0~0~0.0~0.0~0.0~0.0~0~0.0~0.0~0.0~315.0~1018.0~1017.0*
%ADD195D195*%
G04~CAMADD=196~8~0.0~0.0~1457.9~1457.9~177.8~0.0~15~0.0~0.0~0.0~0.0~0~0.0~0.0~0.0~0.0~0~0.0~0.0~0.0~90.0~1458.0~1458.0*
%ADD196D196*%
%ADD197O,0.086740X0.126110*%
%ADD198R,0.066000X0.118000*%
%ADD199R,0.065940X0.063580*%
%ADD200R,0.065940X0.067300*%
G04~CAMADD=201~8~0.0~0.0~680.0~1080.0~130.0~0.0~15~0.0~0.0~0.0~0.0~0~0.0~0.0~0.0~0.0~0~0.0~0.0~0.0~270.0~1080.0~680.0*
%ADD201D201*%
%LNunisolder52_full-1*%
%LPD*%
G36*
X0511638Y0408933D02*
X0511534D01*
X0511638Y0408433*
X0511534*
X0511638Y0407933*
X0506056*
X0505831Y0408999*
X0505937*
X0505831Y0409499*
X0505937*
X0505831Y0409999*
X0508888*
X050798Y0414339*
X0508085*
X050798Y0414839*
X0508085*
X050798Y0415339*
X0510305*
X0511638Y0408933*
G37*
G36*
X0499184Y0413588D02*
X0499209Y0413598D01*
X0499317Y0413623*
X0499417Y0413648*
X0499509Y0413664*
X0499584Y0413681*
X049965*
X04997Y041369*
X0499742*
X0499934Y0413681*
X0500016Y0413666*
X0500084Y0413681*
X050015*
X05002Y041369*
X0500242*
X0500434Y0413681*
X0500516Y0413666*
X0500584Y0413681*
X0500651*
X05007Y041369*
X0500742*
X0500934Y0413681*
X0501117Y0413648*
X0501284Y0413606*
X050145Y0413548*
X05016Y0413481*
X0501742Y0413406*
X0501867Y0413323*
X0501983Y041324*
X0502083Y0413148*
X0502175Y0413073*
X0502177*
X0502074Y0413573*
X0502639*
X0502516Y0414181*
X0502631Y0414111*
X0502516Y041468*
X0502631Y041461*
X0502516Y041518*
X0503086Y0414834*
X0503016Y041518*
X0503586Y0414834*
X0503516Y041518*
X050494Y0414314*
X0505099Y0413573*
X0505707*
X0505898Y041264*
X0505796*
X0505898Y041214*
X0505796*
X0505898Y041164*
X0505496*
X0505682Y0410774*
X0505707Y0410632*
X0505732Y0410507*
X0505757Y0410399*
X0505773Y0410291*
X050579Y0410199*
X0505798Y0410124*
X0505815Y0410049*
X0505823Y0409991*
Y0409933*
X0505832Y0409891*
X050584Y0409833*
Y0409791*
Y0409783*
X0505823Y0409624*
X0505811Y0409568*
X0505815Y0409549*
X0505823Y0409491*
Y0409433*
X0505832Y0409391*
X050584Y0409333*
Y0409291*
Y0409283*
X0505823Y0409124*
X0505811Y0409068*
X0505815Y0409049*
X0505823Y0408991*
Y0408933*
X0505832Y0408891*
X050584Y0408833*
Y0408791*
Y0408783*
X0505823Y0408624*
X050579Y0408474*
X0505748Y0408358*
X050569Y040825*
X0505632Y0408175*
X050559Y0408116*
X0505557Y0408075*
X050554Y0408066*
X0505482Y0408025*
X0505415Y0407983*
X0505265Y0407925*
X0505107Y0407875*
X0504949Y040785*
X0504807Y0407833*
X050474Y0407825*
X0504691*
X050464Y0407816*
X0504457*
X0504332Y0407825*
X0504291Y0407831*
X0504241Y0407825*
X050419*
X0504141Y0407816*
X0503957*
X0503832Y0407825*
X0503791Y0407831*
X0503741Y0407825*
X050369*
X0503641Y0407816*
X0503457*
X0503332Y0407825*
X0503224Y0407841*
X0503124Y040785*
X0503032Y0407866*
X0502974Y0407875*
X0502933Y0407883*
X0502916*
X0502776Y0408534*
X0502766Y0408516*
X0502725Y040845*
X0502691Y0408399*
X0502666Y0408358*
X0502641Y0408333*
X0502633Y0408316*
X0502625Y0408308*
X0502533Y0408225*
X0502441Y040815*
X050235Y0408083*
X050225Y0408025*
X050215Y0407975*
X0502058Y0407933*
X0501867Y0407875*
X05017Y0407841*
X0501633Y0407833*
X0501567Y0407825*
X0501517Y0407816*
X050145*
X05013Y0407825*
X050118Y0407839*
X0501133Y0407833*
X0501067Y0407825*
X0501017Y0407816*
X050095*
X05008Y0407825*
X050068Y0407839*
X0500633Y0407833*
X0500567Y0407825*
X0500517Y0407816*
X050045*
X05003Y0407825*
X0500159Y0407841*
X0500034Y0407858*
X0499925Y0407891*
X0499834Y0407916*
X0499767Y0407933*
X0497943*
X0497653Y040926*
X0497718Y0408933*
X0497618*
X0497718Y0408433*
X0497618*
X0497718Y0407933*
X0495477*
X0495235Y0409141*
X0495335*
X0495235Y0409641*
X0495335*
X0495235Y0410141*
X0497461*
X0496543Y0414339*
X0496653*
X0496543Y0414839*
X0496653*
X0496543Y0415339*
X0498801*
X0499184Y0413588*
G37*
G36*
X0558327Y0415447D02*
X0558519Y041543D01*
X0558694Y0415405*
X055886Y0415372*
X055901Y0415331*
X0559152Y041528*
X0559277Y0415239*
X0559385Y0415189*
X0559485Y0415131*
X0559577Y0415089*
X0559652Y0415039*
X055971Y0414997*
X055976Y0414964*
X0559794Y0414939*
X055981Y0414922*
X0559818Y0414914*
X0559918Y0414814*
X056001Y0414706*
X0560085Y0414589*
X0560152Y0414481*
X056021Y0414364*
X056026Y0414256*
X0560302Y0414148*
X0560327Y0414048*
X0560352Y0413948*
X0560368Y0413856*
X0560385Y0413773*
X0560393Y0413706*
X0560401Y0413648*
Y0413606*
Y0413581*
Y0413573*
X0560393Y0413406*
X0560378Y0413308*
X0560385Y0413273*
X0560393Y0413206*
X0560401Y0413148*
Y0413106*
Y0413081*
Y0413073*
X0560393Y0412906*
X0560378Y0412808*
X0560385Y0412773*
X0560393Y0412706*
X0560401Y0412648*
Y0412606*
Y0412581*
Y0412573*
X0560393Y0412406*
X0560368Y0412248*
X0560343Y0412106*
X0560302Y041199*
X0560268Y041189*
X0560243Y0411815*
X0560218Y0411773*
X056021Y0411757*
X0560127Y0411631*
X0560043Y0411523*
X0559952Y0411432*
X055986Y0411348*
X0559785Y0411282*
X0559727Y041124*
X0559685Y0411207*
X0559668Y0411198*
X0559602Y0411157*
X0559519Y0411115*
X0559427Y0411065*
X0559918Y0411039*
Y041104*
Y0411057*
Y0411065*
X0561176Y0410999*
Y0410766*
X0561151Y0410549*
X0561143Y0410501*
X0561176Y0410499*
Y0410266*
X0561151Y0410049*
X0561143Y0410001*
X0561176Y0409999*
Y0409766*
X0561151Y0409549*
X0561118Y0409358*
X0561076Y0409191*
X0561051Y0409116*
X0561026Y0409049*
X056101Y0408991*
X0560993Y0408949*
X0560976Y0408908*
X056096Y0408883*
X0560951Y0408866*
Y0408858*
X0560901Y0408766*
X0560843Y0408683*
X056071Y0408533*
X0560568Y0408399*
X0560427Y0408291*
X0560302Y0408208*
X0560243Y0408166*
X0560193Y0408141*
X0560152Y0408116*
X0560118Y0408108*
X0560102Y0408091*
X0560093*
X055986Y0408*
X055961Y0407933*
X0559369Y0407883*
X0559152Y040785*
X0559044Y0407841*
X0558952Y0407833*
X0558869Y0407825*
X0558802*
X0558744Y0407816*
X0558661*
X0558444Y0407825*
X0558402Y0407828*
X0558369Y0407825*
X0558302*
X0558244Y0407816*
X0558161*
X0557944Y0407825*
X0557902Y0407828*
X0557869Y0407825*
X0557802*
X0557744Y0407816*
X0557661*
X0557444Y0407825*
X0557236Y0407841*
X0557044Y0407875*
X0556869Y0407908*
X0556703Y0407958*
X0556544Y0408008*
X0556403Y0408058*
X0556278Y0408116*
X055617Y0408175*
X055607Y0408225*
X0555986Y0408275*
X055592Y0408324*
X0555861Y0408358*
X0555828Y0408391*
X0555803Y0408408*
X0555795Y0408416*
X0555678Y0408533*
X055557Y0408649*
X05555Y0408744*
X0555828Y0407167*
X0555724*
X0555828Y0406667*
X0555724*
X0555828Y0406167*
X0553579*
X0553214Y0407911*
X0553204Y0407908*
X0553104Y0407875*
X0553005Y0407858*
X0552913Y0407841*
X0552838Y0407825*
X055278*
X055273Y0407816*
X0552688*
X0552521Y0407825*
X0552414Y0407842*
X0552413Y0407841*
X0552338Y0407825*
X055228*
X055223Y0407816*
X0552188*
X0552021Y0407825*
X0551914Y0407842*
X0551913Y0407841*
X0551838Y0407825*
X055178*
X055173Y0407816*
X0551688*
X0551521Y0407825*
X0551363Y040785*
X0551213Y0407883*
X0551063Y0407933*
X055093Y0407983*
X0550797Y040805*
X055068Y0408116*
X0550572Y0408183*
X0550472Y040825*
X0550388Y0408316*
X0550314Y0408383*
X0550247Y0408433*
X0550197Y0408483*
X0550164Y0408516*
X0550139Y0408541*
X055013Y0408549*
X0549997Y0408716*
X0549882Y0408888*
X0549856Y0408766*
X0549797Y0408599*
X0549722Y0408458*
X0549656Y0408341*
X0549598Y0408258*
X0549573Y0408233*
X0549556Y0408208*
X0549539Y04082*
Y0408191*
X0549464Y0408125*
X0549389Y0408066*
X0549231Y0407975*
X0549073Y0407908*
X0548923Y0407866*
X054879Y0407833*
X0548731Y0407825*
X0548681*
X0548648Y0407816*
X054859*
X0548456Y0407825*
X0548323Y0407841*
X0548289Y0407833*
X0548231Y0407825*
X0548181*
X0548148Y0407816*
X054809*
X0547956Y0407825*
X0547823Y0407841*
X0547789Y0407833*
X0547731Y0407825*
X0547681*
X0547648Y0407816*
X054759*
X0547456Y0407825*
X0547323Y0407841*
X0547206Y0407866*
X0547098Y04079*
X0547007Y0407933*
X05428*
X05425Y0409382*
X0542467Y0409541*
X0542433Y0409691*
X05424Y0409832*
X0542367Y0409966*
X0542333Y0410082*
X05423Y0410182*
X0542275Y0410282*
X0542242Y0410365*
X0542217Y041044*
X0542192Y0410507*
X0542175Y0410557*
X0542158Y0410607*
X0542142Y041064*
X0542133Y0410665*
X0542125Y0410674*
Y0410682*
X054205Y0410832*
X0541959Y0410957*
X0541875Y0411073*
X0541792Y0411165*
X0541717Y041124*
X0541659Y0411298*
X0541617Y0411332*
X05416Y041134*
X0541475Y0411423*
X0541359Y0411482*
X0541242Y0411532*
X0541161Y0411552*
X0541142Y0411548*
X0541109Y0411532*
X0541084Y0411523*
X0541076*
X0541051Y0411575*
X0541001Y041159*
X0540973*
X0541526Y0408933*
X0541422*
X0541526Y0408433*
X0541422*
X0541526Y0407933*
X0539276*
X0538993Y0409316*
X0538926Y0409375*
X0538494Y0407933*
X0536742*
X0536828Y0407192*
X0536771Y0407177*
X0536828Y0406692*
X0536771Y0406677*
X0536828Y0406192*
X0536644Y0406142*
X0536478Y0406109*
X0536328Y0406084*
X0536195Y0406067*
X0536086Y0406059*
X0536003Y040605*
X0535936*
X0535795Y0406059*
X0535711Y0406069*
X0535695Y0406067*
X0535586Y0406059*
X0535503Y040605*
X0535436*
X0535295Y0406059*
X0535211Y0406069*
X0535195Y0406067*
X0535086Y0406059*
X0535003Y040605*
X0534936*
X0534795Y0406059*
X0534661Y0406075*
X0534545Y04061*
X0534445Y0406125*
X0534362Y040615*
X0534303Y0406175*
X053427Y0406192*
X0534253Y04062*
X0534145Y0406259*
X0534053Y0406325*
X053397Y0406392*
X0533895Y040645*
X0533837Y0406509*
X0533795Y0406559*
X053377Y0406592*
X0533762Y04066*
X053372Y040665*
X0533678Y0406708*
X0533587Y0406842*
X0533487Y0406983*
X0533404Y0407133*
X053332Y0407267*
X0533287Y0407325*
X0533254Y0407375*
X0533229Y0407417*
X0533212Y040745*
X0533195Y0407467*
Y0407475*
X0531347Y0410774*
Y0410766*
X0531321Y0410549*
X0531313Y0410501*
X0531347Y0410499*
Y0410266*
X0531321Y0410049*
X0531313Y0410001*
X0531347Y0409999*
Y0409766*
X0531321Y0409549*
X0531288Y0409358*
X0531247Y0409191*
X0531222Y0409116*
X0531197Y0409049*
X053118Y0408991*
X0531163Y0408949*
X0531147Y0408908*
X053113Y0408883*
X0531122Y0408866*
Y0408858*
X0531072Y0408766*
X0531013Y0408683*
X053088Y0408533*
X0530738Y0408399*
X0530597Y0408291*
X0530472Y0408208*
X0530413Y0408166*
X0530364Y0408141*
X0530322Y0408116*
X0530289Y0408108*
X0530272Y0408091*
X0530264*
X053003Y0408*
X052978Y0407933*
X0529539Y0407883*
X0529322Y040785*
X0529214Y0407841*
X0529122Y0407833*
X0529039Y0407825*
X0528972*
X0528914Y0407816*
X0528831*
X0528614Y0407825*
X0528573Y0407828*
X0528539Y0407825*
X0528473*
X0528414Y0407816*
X0528331*
X0528114Y0407825*
X0528073Y0407828*
X0528039Y0407825*
X0527973*
X0527914Y0407816*
X0527831*
X0527614Y0407825*
X0527406Y0407841*
X0527214Y0407875*
X0527039Y0407908*
X0526873Y0407958*
X0526715Y0408008*
X0526573Y0408058*
X0526448Y0408116*
X052634Y0408175*
X052624Y0408225*
X0526157Y0408275*
X052609Y0408324*
X0526032Y0408358*
X0525998Y0408391*
X0525973Y0408408*
X0525965Y0408416*
X0525848Y0408533*
X052574Y0408649*
X0525648Y0408774*
X0525573Y0408899*
X0525507Y0409016*
X0525457Y0409141*
X0525407Y0409258*
X0525374Y0409366*
X052536Y0409426*
X0525332Y0409282*
X0525282Y0409124*
X0525241Y0408999*
X0525224Y0408949*
X0525199Y0408899*
X0525191Y0408866*
X0525174Y0408841*
X0525166Y0408824*
Y0408816*
X0525057Y0408649*
X0524941Y0408499*
X0524816Y0408375*
X0524691Y0408266*
X0524582Y0408183*
X0524491Y0408125*
X0524458Y04081*
X0524433Y0408091*
X0524416Y0408075*
X0524408*
X0524208Y0407991*
X0524016Y0407925*
X0523816Y0407883*
X0523641Y040785*
X0523483Y0407833*
X0523416Y0407825*
X0523358*
X0523316Y0407816*
X052325*
X0523025Y0407825*
X0522969Y0407831*
X0522916Y0407825*
X0522858*
X0522816Y0407816*
X052275*
X0522525Y0407825*
X052247Y0407831*
X0522416Y0407825*
X0522358*
X0522316Y0407816*
X052225*
X0522025Y0407825*
X0521817Y040785*
X0521617Y0407891*
X0521433Y0407941*
X0521258Y0408008*
X05211Y0408075*
X0520959Y040815*
X0520825Y0408225*
X0520709Y0408299*
X0520609Y0408375*
X0520517Y0408441*
X052045Y0408508*
X0520392Y0408558*
X0520351Y0408599*
X0520326Y0408624*
X0520317Y0408633*
X0520192Y0408791*
X0520076Y0408958*
X0519984Y0409116*
X0519947Y0409194*
X0520001Y0408933*
X0519897*
X0520001Y0408433*
X0519897*
X0520001Y0407933*
X0517752*
X0516977Y0411657*
X0516824*
X0516827Y041164*
X0516425*
X0516611Y0410774*
X0516636Y0410632*
X0516661Y0410507*
X0516686Y0410399*
X0516702Y0410291*
X0516719Y0410199*
X0516727Y0410124*
X0516744Y0410049*
X0516752Y0409991*
Y0409933*
X0516761Y0409891*
X0516769Y0409833*
Y0409791*
Y0409783*
X0516752Y0409624*
X051674Y0409568*
X0516744Y0409549*
X0516752Y0409491*
Y0409433*
X0516761Y0409391*
X0516769Y0409333*
Y0409291*
Y0409283*
X0516752Y0409124*
X051674Y0409068*
X0516744Y0409049*
X0516752Y0408991*
Y0408933*
X0516761Y0408891*
X0516769Y0408833*
Y0408791*
Y0408783*
X0516752Y0408624*
X0516719Y0408474*
X0516677Y0408358*
X0516619Y040825*
X0516561Y0408175*
X0516519Y0408116*
X0516486Y0408075*
X0516469Y0408066*
X0516411Y0408025*
X0516344Y0407983*
X0516194Y0407925*
X0516036Y0407875*
X0515878Y040785*
X0515736Y0407833*
X0515669Y0407825*
X051562*
X0515569Y0407816*
X0515386*
X0515261Y0407825*
X051522Y0407831*
X0515169Y0407825*
X051512*
X0515069Y0407816*
X0514886*
X0514761Y0407825*
X051472Y0407831*
X0514669Y0407825*
X0514619*
X051457Y0407816*
X0514386*
X0514261Y0407825*
X0514153Y0407841*
X0514053Y040785*
X0513961Y0407866*
X0513903Y0407875*
X0513861Y0407883*
X0513845*
X0513645Y0408816*
X0513754Y0408808*
X0513645Y0409316*
X0513754Y0409308*
X0513645Y0409816*
X0513762Y0409808*
X0513853Y0409799*
X051392Y0409791*
X0513978*
X051402Y0409783*
X0514145*
X0514152Y0409784*
X0514145Y0409816*
X0514261Y0409808*
X0514268Y0409807*
X051427Y0409808*
X051432Y0409824*
X0514348Y0409831*
X0513961Y041164*
X0513195*
X0513003Y0412573*
X0513106*
X0513003Y0413073*
X0513106*
X0513003Y0413573*
X0513568*
X0513445Y0414181*
X051356Y0414111*
X0513445Y041468*
X051356Y041461*
X0513445Y041518*
X0514015Y0414834*
X0513945Y041518*
X0514515Y0414834*
X0514445Y041518*
X0515301Y041466*
X0515277Y0414747*
X0515403Y0414783*
X0515277Y0415247*
X0515511Y0415314*
X0515736Y0415364*
X0515944Y0415405*
X0516127Y041543*
X0516202Y0415439*
X0516277Y0415447*
X0516344*
X0516394Y0415455*
X0516494*
X051666Y0415447*
X0516719Y0415441*
X0516777Y0415447*
X0516844*
X0516894Y0415455*
X0516994*
X051716Y0415447*
X0517219Y0415441*
X0517277Y0415447*
X0517344*
X0517394Y0415455*
X0517494*
X051766Y0415447*
X051781Y041543*
X0517943Y0415405*
X0518052Y0415372*
X0518144Y0415339*
X051821Y0415314*
X0518243Y0415297*
X051826Y0415289*
X051836Y0415222*
X0518452Y0415147*
X0518527Y0415072*
X0518593Y0415006*
X0518635Y0414939*
X0518677Y0414889*
X0518693Y0414856*
X0518702Y0414839*
X0518718Y0414797*
X0518743Y0414747*
X0518785Y0414631*
X0518826Y0414498*
X051886Y0414372*
X0518893Y0414248*
X051891Y0414148*
X0518918Y0414106*
X0518926Y0414073*
X0518935Y0414056*
Y0414048*
X0519035Y0413573*
X0519734*
X0519906Y0412754*
X0519934Y0412807*
X0519992Y0412881*
X0520042Y0412956*
X0520084Y0413015*
X0520126Y0413056*
X0520151Y041309*
X0520167Y0413106*
X0520176Y0413115*
X0520284Y0413215*
X0520409Y0413306*
X0520534Y0413381*
X0520667Y0413448*
X05208Y0413506*
X0520934Y0413548*
X0521067Y0413589*
X0521192Y0413615*
X0521308Y0413639*
X0521417Y0413656*
X0521517Y0413673*
X0521608Y0413681*
X0521675Y041369*
X0521775*
X0521991Y0413681*
X0522042Y0413675*
X0522108Y0413681*
X0522175Y041369*
X0522275*
X0522492Y0413681*
X0522542Y0413675*
X0522608Y0413681*
X0522675Y041369*
X0522775*
X0522992Y0413681*
X05232Y0413656*
X0523391Y0413615*
X0523575Y0413573*
X0523741Y0413506*
X05239Y0413448*
X0524041Y0413373*
X0524174Y0413306*
X0524291Y0413231*
X0524391Y0413156*
X0524474Y0413098*
X0524549Y041304*
X0524608Y041299*
X0524649Y0412948*
X0524674Y0412923*
X0524683Y0412915*
X0524807Y0412765*
X0524881Y0412665*
X0524882Y0412673*
X0524915Y0412831*
X0524957Y0412973*
X0524969Y041301*
X0524865Y0413015*
X0524882Y0413173*
X0524915Y0413331*
X0524957Y0413473*
X0524969Y041351*
X0524865Y0413515*
X0524882Y0413673*
X0524915Y0413831*
X0524957Y0413973*
X0524999Y0414106*
X0525057Y0414231*
X0525107Y0414348*
X0525174Y0414456*
X0525232Y0414547*
X052529Y0414639*
X0525349Y0414714*
X0525407Y0414772*
X0525449Y0414831*
X052549Y0414872*
X0525523Y0414897*
X052554Y0414914*
X0525548Y0414922*
X0525673Y0415014*
X0525798Y0415097*
X052594Y0415172*
X0526082Y0415231*
X0526223Y041528*
X0526373Y0415322*
X0526656Y0415389*
X0526781Y0415414*
X0526906Y041543*
X0527014Y0415439*
X0527114Y0415447*
X0527189Y0415455*
X0527298*
X0527498Y0415447*
X0527555Y0415442*
X0527614Y0415447*
X0527689Y0415455*
X0527798*
X0527998Y0415447*
X0528055Y0415442*
X0528115Y0415447*
X0528189Y0415455*
X0528298*
X0528498Y0415447*
X0528689Y041543*
X0528864Y0415405*
X0529031Y0415372*
X0529181Y0415331*
X0529322Y041528*
X0529447Y0415239*
X0529556Y0415189*
X0529656Y0415131*
X0529747Y0415089*
X0529822Y0415039*
X052988Y0414997*
X052993Y0414964*
X0529964Y0414939*
X052998Y0414922*
X0529989Y0414914*
X0530089Y0414814*
X053018Y0414706*
X0530255Y0414589*
X0530322Y0414481*
X053038Y0414364*
X053043Y0414256*
X0530472Y0414148*
X0530497Y0414048*
X0530522Y0413948*
X0530539Y0413856*
X0530555Y0413773*
X0530563Y0413706*
X0530572Y0413648*
Y0413606*
Y0413581*
Y0413573*
X0532663*
X0533639Y0411751*
X0533895Y0413573*
X0538002*
X0538119Y041346*
X0537935Y0414339*
X053804*
X0537935Y0414839*
X053804*
X0537935Y0415339*
X0540193*
X0540539Y0413677*
X0540576Y0413681*
X0540626Y041369*
X0540676*
X0540817Y0413681*
X0540921Y0413657*
X0541001Y0413673*
X0541076Y0413681*
X0541126Y041369*
X0541176*
X0541317Y0413681*
X0541421Y0413657*
X0541501Y0413673*
X0541576Y0413681*
X0541626Y041369*
X0541676*
X0541817Y0413681*
X0541959Y0413648*
X0542092Y0413598*
X0542139Y0413573*
X0544083*
X0544541Y0411375*
Y0411407*
Y0411432*
Y041144*
X0544549Y041154*
X0544558Y0411631*
X0544561Y0411642*
X0544558Y0411665*
X0544549Y041174*
Y0411807*
X0544541Y0411865*
Y0411907*
Y0411932*
Y041194*
X0544549Y041204*
X0544558Y0412132*
X0544561Y0412142*
X0544558Y0412165*
X0544549Y041224*
Y0412307*
X0544541Y0412365*
Y0412407*
Y0412432*
Y041244*
X0544549Y041254*
X0544558Y0412632*
X0544607Y0412798*
X0544674Y0412948*
X0544757Y0413081*
X0544841Y0413181*
X0544907Y0413256*
X0544957Y0413306*
X0544966Y0413323*
X0544974*
X0545057Y041339*
X0545149Y0413448*
X0545357Y0413531*
X0545582Y0413598*
X0545799Y0413648*
X0545899Y0413656*
X054599Y0413673*
X0546073Y0413681*
X0546148*
X0546215Y041369*
X0546457*
X0546552Y0413679*
X0546573Y0413681*
X0546649*
X0546715Y041369*
X0546957*
X0547051Y0413679*
X0547074Y0413681*
X0547149*
X0547215Y041369*
X0547457*
X0547607Y0413673*
X0547748Y0413656*
X0547882Y0413631*
X0548006Y0413606*
X0548123Y0413581*
X0548223Y0413548*
X0548315Y0413515*
X0548406Y0413481*
X0548481Y0413448*
X054854Y0413423*
X054859Y0413398*
X0548631Y0413373*
X0548665Y0413356*
X0548681Y0413348*
X054869Y041334*
X0548873Y0413198*
X0549023Y041304*
X0549148Y0412881*
X0549248Y0412723*
X0549323Y041259*
X0549348Y0412523*
X0549373Y0412473*
X0549389Y0412432*
X0549406Y0412398*
X0549414Y0412382*
Y0412373*
X0549166Y0412353*
X0549248Y0412223*
X0549323Y041209*
X0549348Y0412023*
X0549373Y0411973*
X0549377Y0411962*
X0549381Y0412032*
X0549405Y041219*
X0549431Y041234*
X0549464Y0412473*
X0549506Y0412598*
X0549547Y0412707*
X0549589Y0412807*
X054963Y0412898*
X0549672Y0412973*
X0549705Y0413031*
X0549747Y041309*
X0549772Y0413131*
X0549797Y0413156*
X0549805Y0413173*
X0549814Y0413181*
X0549897Y0413273*
X0549989Y0413348*
X0550089Y0413415*
X055018Y0413473*
X055028Y0413523*
X055038Y0413564*
X0550563Y0413623*
X055073Y0413664*
X0550797Y0413673*
X0550863Y0413681*
X0550913Y041369*
X055098*
X0551122Y0413681*
X0551242Y0413666*
X0551297Y0413673*
X0551363Y0413681*
X0551413Y041369*
X055148*
X0551621Y0413681*
X0551742Y0413666*
X0551797Y0413673*
X0551863Y0413681*
X0551913Y041369*
X055198*
X0552121Y0413681*
X0552255Y0413664*
X0552371Y0413648*
X055248Y0413623*
X0552571Y0413589*
X0552638Y0413573*
X0554496*
X0554702Y041258*
X0554712Y0412673*
X0554745Y0412831*
X0554787Y0412973*
X0554799Y041301*
X0554695Y0413015*
X0554712Y0413173*
X0554745Y0413331*
X0554787Y0413473*
X0554799Y041351*
X0554695Y0413515*
X0554712Y0413673*
X0554745Y0413831*
X0554787Y0413973*
X0554828Y0414106*
X0554887Y0414231*
X0554937Y0414348*
X0555003Y0414456*
X0555062Y0414547*
X055512Y0414639*
X0555178Y0414714*
X0555236Y0414772*
X0555278Y0414831*
X055532Y0414872*
X0555353Y0414897*
X055537Y0414914*
X0555378Y0414922*
X0555503Y0415014*
X0555628Y0415097*
X055577Y0415172*
X0555911Y0415231*
X0556053Y041528*
X0556203Y0415322*
X0556486Y0415389*
X0556611Y0415414*
X0556736Y041543*
X0556844Y0415439*
X0556944Y0415447*
X0557019Y0415455*
X0557128*
X0557327Y0415447*
X0557384Y0415442*
X0557444Y0415447*
X0557519Y0415455*
X0557627*
X0557827Y0415447*
X0557885Y0415442*
X0557944Y0415447*
X0558019Y0415455*
X0558127*
X0558327Y0415447*
G37*
%LNunisolder52_full-2*%
%LPC*%
G36*
X0522286Y0411616D02*
X0522284Y0411615D01*
X05222Y0411557*
X052215Y0411515*
X0522109Y0411482*
X05221Y0411473*
X0522009Y0411365*
X0521942Y0411248*
X0521906Y0411148*
X0521909Y0411132*
X052195Y0410999*
X0521992Y0410874*
X0522034Y0410757*
X0522084Y0410649*
X0522133Y0410557*
X0522175Y0410474*
X0522217Y0410399*
X0522259Y0410332*
X0522284Y0410291*
X0522308Y0410249*
X0522325Y0410232*
X0522333Y0410224*
X05224Y0410149*
X0522467Y0410083*
X0522542Y0410016*
X0522617Y0409966*
X0522686Y0409929*
X0522691Y0409933*
X0522775Y0409983*
X0522833Y0410033*
X0522866Y0410066*
X0522883Y0410074*
X0522974Y0410191*
X0523033Y0410324*
X0523075Y0410429*
X0523066Y0410465*
X0523033Y0410582*
X0523008Y0410674*
X0522999Y0410707*
X0522991Y0410732*
X0522983Y0410749*
Y0410757*
X0522908Y0410923*
X0522833Y0411073*
X052275Y0411198*
X0522675Y0411307*
X05226Y0411382*
X0522541Y041144*
X0522508Y0411482*
X0522491Y041149*
X0522366Y0411573*
X0522286Y0411616*
G37*
G36*
X0551982Y0411633D02*
X055193Y0411598D01*
X0551872Y0411548*
X0551838Y0411515*
X055183Y0411507*
X0551747Y041139*
X0551688Y0411265*
X0551648Y0411157*
X0551672Y0411049*
X0551713Y0410924*
X055173Y0410866*
X0551738Y0410824*
X0551755Y0410782*
X0551763Y0410757*
X0551772Y0410741*
Y0410732*
X0551847Y0410549*
X055193Y0410391*
X0552005Y0410266*
X0552088Y0410157*
X0552155Y0410083*
X0552205Y0410024*
X0552238Y0409991*
X0552255Y0409983*
X0552332Y0409929*
X0552379Y0409966*
X0552429Y0410008*
X0552471Y0410041*
X0552479Y0410058*
X0552571Y0410183*
X0552629Y0410316*
X0552673Y041044*
X0552663Y0410482*
X0552638Y0410599*
X0552613Y041069*
X0552604Y0410724*
X0552596Y0410749*
X0552588Y0410765*
Y0410774*
X0552521Y0410949*
X0552446Y0411107*
X0552371Y0411232*
X0552296Y041134*
X0552229Y0411423*
X0552179Y0411482*
X0552146Y0411523*
X0552129Y0411532*
X0552013Y0411615*
X0551982Y0411633*
G37*
G36*
X0529064Y0410803D02*
X0528997Y0410774D01*
X0528931Y041074*
X0528872Y0410715*
X0528814Y041069*
X0528781Y0410674*
X0528756Y0410657*
X0528748*
X0528614Y0410599*
X0528489Y041054*
X0528381Y041049*
X0528289Y0410449*
X0528206Y0410407*
X0528131Y0410365*
X0528064Y0410332*
X0528006Y0410299*
X0527964Y0410274*
X0527923Y0410249*
X0527865Y0410215*
X052784Y0410199*
X0527831Y041019*
X0527828Y0410187*
X0527831Y0410183*
X0527865Y0410149*
X0527881Y0410141*
X052794Y0410099*
X0528006Y0410066*
X0528148Y0410008*
X0528306Y0409974*
X0528328Y040997*
X0528414Y0409991*
X0528497Y0410024*
X0528581Y0410049*
X0528647Y0410083*
X0528706Y0410116*
X0528756Y0410141*
X0528797Y0410174*
X052883Y0410199*
X0528872Y0410232*
X0528889Y0410249*
X0528922Y0410291*
X0528947Y0410349*
X0528997Y0410466*
X052903Y0410599*
X0529055Y0410741*
X0529064Y0410803*
G37*
G36*
X0554716Y0412514D02*
X055513Y0410522D01*
X0555137Y0410615*
X055514Y041063*
X0555137Y0410649*
X0555128Y0410724*
Y0410782*
X055512Y0410832*
Y0410857*
Y0410866*
X0555128Y041099*
X0555137Y0411116*
X0555195Y0411332*
X0555262Y0411532*
X0555345Y041169*
X0555395Y0411765*
X0555437Y0411824*
X055547Y0411873*
X0555503Y0411915*
X0555536Y0411957*
X0555561Y0411982*
X055557Y041199*
X0555578Y0411999*
X0555645Y0412057*
X0555728Y0412115*
X055582Y0412182*
X0555928Y041224*
X0556153Y0412373*
X0556339Y0412469*
X0555962Y0412484*
X0555961Y0412481*
Y0412473*
Y0412465*
X0554716Y0412514*
G37*
G36*
X0558893Y0410803D02*
X0558827Y0410774D01*
X055876Y041074*
X0558702Y0410715*
X0558644Y041069*
X0558611Y0410674*
X0558586Y0410657*
X0558577*
X0558444Y0410599*
X0558319Y041054*
X0558211Y041049*
X0558119Y0410449*
X0558036Y0410407*
X0557961Y0410365*
X0557894Y0410332*
X0557836Y0410299*
X0557794Y0410274*
X0557753Y0410249*
X0557694Y0410215*
X0557669Y0410199*
X0557661Y041019*
X0557657Y0410187*
X0557661Y0410183*
X0557694Y0410149*
X0557711Y0410141*
X0557769Y0410099*
X0557836Y0410066*
X0557977Y0410008*
X0558136Y0409974*
X0558158Y040997*
X0558244Y0409991*
X0558327Y0410024*
X055841Y0410049*
X0558477Y0410083*
X0558535Y0410116*
X0558585Y0410141*
X0558627Y0410174*
X055866Y0410199*
X0558702Y0410232*
X0558718Y0410249*
X0558752Y0410291*
X0558777Y0410349*
X0558827Y0410466*
X055886Y0410599*
X0558885Y0410741*
X0558893Y0410803*
G37*
G36*
X0545011Y0408433D02*
X0544945D01*
X0544988Y0408228*
X0544999Y0408299*
X0545007Y0408399*
X0545011Y0408433*
G37*
G36*
X0536032Y0411975D02*
X0535458Y0408679D01*
X0535478Y0408641*
X0535553Y0408525*
X0535636Y0408425*
X0535711Y0408342*
X0535795Y0408275*
X053587Y0408217*
X0535945Y0408167*
X0536011Y0408133*
X0536078Y0408108*
X0536101Y0408098*
X0536136Y0408108*
X0536178Y0408117*
X0536211Y0408125*
X0536219*
X0536226Y0408065*
X0536253Y0408058*
X0536278*
X0536405Y0408433*
X0536236*
X0536405Y0408933*
X0536236*
X0536976Y0411124*
X0536032Y0411975*
G37*
G36*
X0544996Y0408933D02*
X0544945D01*
X0544988Y0408728*
X0544999Y04088*
X0545004Y0408862*
X0544999Y0408916*
X0544996Y0408933*
G37*
G36*
X0500093Y0411581D02*
X0500051Y0411548D01*
X0499992Y0411498*
X0499951Y0411465*
X0499942Y0411448*
X0499851Y0411323*
X0499784Y041119*
X0499742Y0411079*
X0499759Y0411007*
X0499792Y0410882*
X0499826Y0410791*
X0499834Y0410757*
X0499842Y0410732*
X0499851Y0410716*
Y0410707*
X0499917Y0410541*
X0500001Y0410391*
X0500076Y0410266*
X0500151Y0410166*
X0500217Y0410091*
X0500276Y0410033*
X0500309Y0409999*
X0500326Y0409991*
X0500442Y0409916*
X0500447Y0409914*
X05005Y0409949*
X050055Y0409991*
X0500592Y0410024*
X05006Y0410033*
X0500683Y0410149*
X0500742Y0410274*
X0500779Y0410373*
X0500733Y0410549*
X05007Y0410657*
X0500667Y0410749*
X0500633Y041084*
X0500608Y0410915*
X0500575Y0410982*
X050055Y041104*
X0500525Y041109*
X0500508Y0411123*
X0500492Y041114*
Y0411148*
X0500425Y0411257*
X050035Y0411348*
X0500275Y0411432*
X05002Y0411507*
X0500117Y0411565*
X0500093Y0411581*
G37*
G36*
X0503032Y041164D02*
X0502937D01*
X0502949Y041159*
X0502983Y041144*
X0503016Y0411299*
X0503033Y0411166*
X050305Y0411049*
X0503058Y0410957*
Y0410874*
X0503066Y0410816*
Y0410782*
Y0410766*
X0503058Y0410591*
X0503054Y0410505*
X0503058Y0410457*
Y0410374*
X0503066Y0410316*
Y0410282*
Y0410266*
X0503058Y0410091*
X0503054Y0410005*
X0503058Y0409957*
Y0409874*
X0503066Y0409816*
Y0409788*
X0503091Y0409783*
X0503216*
X0503223Y0409784*
X0503216Y0409816*
X0503333Y0409808*
X0503339Y0409807*
X0503341Y0409808*
X0503391Y0409824*
X0503419Y0409831*
X0503032Y041164*
G37*
G36*
X0519853Y0412656D02*
X0519822D01*
X051983Y0412615*
X0519853Y0412656*
G37*
G36*
X053057Y0412659D02*
X0530572Y0412648D01*
Y0412606*
Y0412581*
Y0412573*
X0530618*
X053057Y0412659*
G37*
G36*
X0549372Y041187D02*
X0549166Y0411853D01*
X0549248Y0411723*
X0549323Y041159*
X0549348Y0411523*
X0549372Y0411474*
Y0411557*
X0549364Y0411624*
Y0411665*
Y0411682*
X0549372Y0411865*
Y041187*
G37*
G36*
X053057Y0413159D02*
X0530572Y0413148D01*
Y0413106*
Y0413081*
Y0413073*
X0530618*
X053057Y0413159*
G37*
G36*
X0557645Y0413343D02*
X0557628Y0413339D01*
X0557503Y0413289*
X0557411Y0413248*
X0557344Y0413206*
X0557311Y0413173*
X0557294Y0413164*
X0557195Y0413064*
X055712Y0412956*
X0557061Y0412839*
X0557047Y04128*
X0557119Y0412831*
X0557236Y041289*
X0557344Y041294*
X0557444Y0412981*
X0557527Y0413031*
X0557611Y0413073*
X0557677Y0413106*
X0557735Y041314*
X0557786Y0413173*
X0557827Y0413198*
X0557883Y0413233*
X055781Y0413281*
X0557694Y0413331*
X0557645Y0413343*
G37*
G36*
X0527815D02*
X0527798Y0413339D01*
X0527673Y0413289*
X0527581Y0413248*
X0527515Y0413206*
X0527481Y0413173*
X0527465Y0413164*
X0527365Y0413064*
X052729Y0412956*
X0527232Y0412839*
X0527217Y04128*
X0527289Y0412831*
X0527406Y041289*
X0527514Y041294*
X0527614Y0412981*
X0527698Y0413031*
X0527781Y0413073*
X0527847Y0413106*
X0527906Y041314*
X0527956Y0413173*
X0527997Y0413198*
X0528053Y0413233*
X0527981Y0413281*
X0527864Y0413331*
X0527815Y0413343*
G37*
G36*
X0529589Y041106D02*
X0529554Y0411041D01*
X0529589Y0411039*
Y041104*
Y0411057*
Y041106*
G37*
G36*
X0530534Y0412223D02*
X0530513Y0412106D01*
X0530472Y041199*
X0530439Y041189*
X0530413Y0411815*
X0530389Y0411773*
X053038Y0411757*
X0530297Y0411631*
X0530214Y0411523*
X0530122Y0411432*
X053003Y0411348*
X0529955Y0411282*
X0529897Y041124*
X0529855Y0411207*
X0529839Y0411198*
X0529772Y0411157*
X0529689Y0411115*
X0529598Y0411065*
X0530089Y0411039*
Y041104*
Y0411057*
Y0411065*
X0531216Y0411006*
X0530534Y0412223*
G37*
G36*
X0519596Y0411657D02*
X0519434D01*
X0519607Y0410827*
X0519609Y0410849*
X0519601Y0410899*
Y0410982*
X0519593Y041104*
Y0411074*
Y041109*
X0519601Y0411265*
X0519609Y0411349*
X0519601Y0411399*
Y0411482*
X0519593Y041154*
Y0411574*
Y041159*
X0519596Y0411657*
G37*
G36*
X0524977Y041251D02*
X0525016Y041244D01*
X0525099Y0412273*
X0525174Y0412098*
X0525232Y0411924*
X0525274Y0411757*
X0525316Y0411599*
X0525349Y0411449*
X0525363Y0411326*
X0525365Y0411332*
X0525432Y0411532*
X0525515Y041169*
X0525565Y0411765*
X0525607Y0411824*
X052564Y0411873*
X0525673Y0411915*
X0525707Y0411957*
X0525732Y0411982*
X052574Y041199*
X0525748Y0411999*
X0525815Y0412057*
X0525898Y0412115*
X052599Y0412182*
X0526098Y041224*
X0526323Y0412373*
X0526509Y0412469*
X0526132Y0412484*
X0526131Y0412481*
Y0412473*
Y0412465*
X0524977Y041251*
G37*
G36*
X0549372Y041137D02*
X0549315Y0411365D01*
X054937Y0411325*
X0549372Y0411365*
Y041137*
G37*
G36*
X0559418Y041106D02*
X0559384Y0411041D01*
X0559418Y0411039*
Y041104*
Y0411057*
Y041106*
G37*
%LNunisolder52_full-3*%
%LPD*%
G54D174*
X0503498Y0562063D03*
Y0572063D03*
Y0552063D03*
Y0542063D03*
X0421798Y0542463D03*
Y0552463D03*
Y0572463D03*
Y0562463D03*
X0210191Y0577165D03*
X0220191D03*
X0230191D03*
X0240191D03*
X0356891Y0376565D03*
X0366891Y0366565D03*
X0356891D03*
X0366891Y0356565D03*
X0356891D03*
X0366891Y0346565D03*
X0356891D03*
X0366891Y0336565D03*
X0356891D03*
X0307891Y0468265D03*
X0297891D03*
X0287891D03*
X0277891D03*
X0267891D03*
X0307891Y0448265D03*
X0297891D03*
X0287891D03*
X0277891D03*
X0267891D03*
Y0417165D03*
X0277891D03*
X0287891D03*
X0297891D03*
X0307891D03*
X0267891Y0437165D03*
X0277891D03*
X0287891D03*
X0297891D03*
X0307891D03*
Y0406065D03*
X0297891D03*
X0287891D03*
X0277891D03*
X0267891D03*
X0307891Y0386065D03*
X0297891D03*
X0287891D03*
X0277891D03*
X0267891D03*
X0559272Y0294744D03*
Y0284744D03*
X0549272Y0294744D03*
Y0284744D03*
X0539272Y0294744D03*
Y0284744D03*
X0529272Y0294744D03*
Y0284744D03*
X0519272Y0294744D03*
G54D175*
X0503498Y0532063D03*
X0421798Y0532463D03*
X0517851Y0461417D03*
G54D176*
X0145276Y0430315D03*
X0136614Y0433465D03*
X0145276Y0424016D03*
X0136614Y0420866D03*
Y0427165D03*
G54D177*
X0140945Y0410827D03*
Y0443504D03*
G54D178*
X0194291Y0302665D03*
Y0551665D03*
G54D179*
X0369291Y0427165D03*
G54D180*
X0187197Y049969D03*
G54D181*
X0169102Y0517785D03*
G54D182*
X0200191Y0577165D03*
X0519272Y0284744D03*
G54D183*
X0253465Y0287098D03*
X0275118D03*
Y0303633D03*
X0253465D03*
X0626968Y0595472D03*
X0648622D03*
X0405673Y0344727D03*
X0427327D03*
Y0361262D03*
X0405673D03*
X0598425Y0595472D03*
X0576772D03*
G54D184*
X0366891Y0376565D03*
G54D185*
X0208033Y046787D03*
X022575D03*
Y0493461D03*
X0208033D03*
Y041437D03*
X022575D03*
Y0439961D03*
X0208033D03*
Y036087D03*
X022575D03*
Y0386461D03*
X0208033D03*
G54D186*
X024249Y0489814D03*
Y0509027D03*
G54D187*
X0560335Y0392027D03*
X042276Y0387435D03*
X0538287Y0358268D03*
X0479331Y0349803D03*
G54D188*
X054065Y0392027D03*
X0518602Y0358268D03*
X0499016Y0349803D03*
G54D189*
X0606063Y0285138D03*
G54D190*
X0596063Y0285138D03*
X0586063D03*
X0486Y0297094D03*
X0481Y0287094D03*
X0476Y0297094D03*
X0471Y0287094D03*
X0466Y0297094D03*
X0461Y0287094D03*
G54D191*
X0549902Y0508382D03*
X0597244Y0575083D03*
X0573622D03*
X0644488Y0501D03*
X0620866Y0501098D03*
G54D192*
X0549902Y0582555D03*
X0597244Y0500909D03*
X0573622D03*
X0644488Y0575173D03*
X0620866Y0575272D03*
G54D193*
X0517851Y0469291D03*
G54D194*
X0411417Y0287402D03*
Y0470472D03*
X0675197Y059252D03*
Y0287402D03*
G54D195*
X040884Y0401354D03*
G54D196*
X0677165Y0507146D03*
Y0480531D03*
Y0565728D03*
Y0539114D03*
G54D197*
X0625591Y0281496D03*
Y030315D03*
X0642126D03*
Y0281496D03*
G54D198*
X0297891Y0468465D03*
G54D199*
X0297884Y0433986D03*
G54D200*
X0297884Y040943D03*
G54D201*
X0257691Y0499665D03*
M02*