%FSTAX25Y25*%
%MOIN*%
%SFA1B1*%

%IPPOS*%
%ADD117C,0.008000*%
%ADD118C,0.007870*%
%LNunisolder52_full-1*%
%LPD*%
G54D117*
X0393701Y0279527D02*
Y0291339D01*
Y0314961D02*
Y0360236D01*
Y0383858D02*
Y0438976D01*
Y0462598D02*
Y0478346D01*
X038189Y0269685D02*
Y0291338D01*
Y0314961D02*
Y0360236D01*
Y0383858D02*
Y0438976D01*
Y0462598D02*
Y0511811D01*
Y0535433D02*
Y0551181D01*
Y0574803D02*
Y0584646D01*
X0405512Y0507874D02*
Y0511811D01*
Y0535433D02*
Y0551181D01*
Y0574803D02*
Y0579528D01*
X0531496Y0494095D02*
Y0519685D01*
Y0543307D02*
Y0549213D01*
Y0572835D02*
Y0600394D01*
X0519685Y0507874D02*
Y0519685D01*
Y0543307D02*
Y0549213D01*
Y0572835D02*
Y0579528D01*
G54D118*
X0399606Y0568898D02*
D01*
X0400017Y0568912*
X0400427Y0568955*
X0400833Y0569027*
X0401233Y0569126*
X0401625Y0569254*
X0402008Y0569408*
X0402378Y0569589*
X0402735Y0569795*
X0403077Y0570025*
X0403402Y0570279*
X0403708Y0570555*
X0403995Y0570852*
X0404259Y0571167*
X0404502Y0571501*
X040472Y0571851*
X0404914Y0572214*
X0405081Y0572591*
X0405222Y0572978*
X0405336Y0573375*
X0405422Y0573778*
X0405479Y0574186*
X0405508Y0574597*
X0405512Y0574803*
X0399606Y0529528D02*
D01*
X0400017Y0529542*
X0400427Y0529585*
X0400833Y0529657*
X0401233Y0529756*
X0401625Y0529884*
X0402008Y0530038*
X0402378Y0530219*
X0402735Y0530425*
X0403077Y0530655*
X0403402Y0530909*
X0403708Y0531185*
X0403995Y0531482*
X0404259Y0531797*
X0404502Y0532131*
X040472Y0532481*
X0404914Y0532844*
X0405081Y0533221*
X0405222Y0533608*
X0405336Y0534005*
X0405422Y0534408*
X0405479Y0534816*
X0405508Y0535227*
X0405512Y0535433*
Y0551181D02*
D01*
X0405497Y0551592*
X0405454Y0552002*
X0405382Y0552408*
X0405283Y0552808*
X0405155Y05532*
X0405001Y0553583*
X040482Y0553953*
X0404614Y055431*
X0404384Y0554652*
X040413Y0554977*
X0403854Y0555283*
X0403557Y055557*
X0403242Y0555834*
X0402908Y0556077*
X0402559Y0556295*
X0402195Y0556489*
X0401818Y0556656*
X0401431Y0556797*
X0401034Y0556911*
X0400631Y0556997*
X0400223Y0557054*
X0399812Y0557083*
X0399606Y0557087*
X0405512Y0511811D02*
D01*
X0405497Y0512222*
X0405454Y0512632*
X0405382Y0513038*
X0405283Y0513438*
X0405155Y051383*
X0405001Y0514213*
X040482Y0514583*
X0404614Y051494*
X0404384Y0515282*
X040413Y0515607*
X0403854Y0515913*
X0403557Y05162*
X0403242Y0516464*
X0402908Y0516707*
X0402559Y0516925*
X0402195Y0517119*
X0401818Y0517286*
X0401431Y0517427*
X0401034Y0517541*
X0400631Y0517627*
X0400223Y0517684*
X0399812Y0517713*
X0399606Y0517717*
X038189Y0535433D02*
D01*
X0381904Y0535021*
X0381947Y0534611*
X0382019Y0534205*
X0382118Y0533805*
X0382246Y0533413*
X03824Y053303*
X0382581Y053266*
X0382787Y0532303*
X0383017Y0531961*
X0383271Y0531636*
X0383547Y053133*
X0383844Y0531043*
X0384159Y0530779*
X0384493Y0530536*
X0384843Y0530318*
X0385206Y0530124*
X0385583Y0529957*
X038597Y0529816*
X0386367Y0529702*
X038677Y0529616*
X0387178Y0529559*
X0387589Y052953*
X0387795Y0529528*
Y0517717D02*
D01*
X0387383Y0517702*
X0386973Y0517659*
X0386567Y0517587*
X0386167Y0517488*
X0385775Y051736*
X0385392Y0517206*
X0385022Y0517025*
X0384665Y0516819*
X0384323Y0516589*
X0383998Y0516335*
X0383692Y0516059*
X0383405Y0515762*
X0383141Y0515447*
X0382898Y0515113*
X038268Y0514764*
X0382486Y05144*
X0382319Y0514023*
X0382178Y0513636*
X0382064Y0513239*
X0381978Y0512836*
X0381921Y0512428*
X0381892Y0512017*
X038189Y0511811*
X0387795Y0557087D02*
D01*
X0387383Y0557072*
X0386973Y0557029*
X0386567Y0556957*
X0386167Y0556858*
X0385775Y055673*
X0385392Y0556576*
X0385022Y0556395*
X0384665Y0556189*
X0384323Y0555959*
X0383998Y0555705*
X0383692Y0555429*
X0383405Y0555132*
X0383141Y0554817*
X0382898Y0554483*
X038268Y0554134*
X0382486Y055377*
X0382319Y0553393*
X0382178Y0553006*
X0382064Y0552609*
X0381978Y0552206*
X0381921Y0551798*
X0381892Y0551387*
X038189Y0551181*
Y0574803D02*
D01*
X0381904Y0574391*
X0381947Y0573981*
X0382019Y0573575*
X0382118Y0573175*
X0382246Y0572783*
X03824Y05724*
X0382581Y057203*
X0382787Y0571673*
X0383017Y0571331*
X0383271Y0571006*
X0383547Y05707*
X0383844Y0570413*
X0384159Y0570149*
X0384493Y0569906*
X0384843Y0569688*
X0385206Y0569494*
X0385583Y0569327*
X038597Y0569186*
X0386367Y0569072*
X038677Y0568986*
X0387178Y0568929*
X0387589Y05689*
X0387795Y0568898*
X0393701Y0360236D02*
D01*
X0393686Y0360647*
X0393643Y0361057*
X0393571Y0361463*
X0393472Y0361863*
X0393344Y0362255*
X039319Y0362638*
X0393009Y0363008*
X0392803Y0363365*
X0392573Y0363707*
X0392319Y0364032*
X0392043Y0364338*
X0391746Y0364625*
X0391431Y0364889*
X0391097Y0365132*
X0390748Y036535*
X0390384Y0365544*
X0390007Y0365711*
X038962Y0365852*
X0389223Y0365966*
X038882Y0366052*
X0388412Y0366109*
X0388001Y0366138*
X0387588*
X0387177Y0366109*
X0386769Y0366052*
X0386366Y0365966*
X0385969Y0365852*
X0385582Y0365711*
X0385205Y0365544*
X0384842Y036535*
X0384492Y0365132*
X0384158Y0364889*
X0383843Y0364625*
X0383546Y0364338*
X038327Y0364032*
X0383016Y0363707*
X0382786Y0363365*
X038258Y0363008*
X0382399Y0362638*
X0382245Y0362255*
X0382117Y0361863*
X0382018Y0361463*
X0381946Y0361057*
X0381903Y0360647*
X038189Y0360236*
Y0383858D02*
D01*
X0381904Y0383446*
X0381947Y0383036*
X0382019Y038263*
X0382118Y038223*
X0382246Y0381838*
X03824Y0381455*
X0382581Y0381085*
X0382787Y0380728*
X0383017Y0380386*
X0383271Y0380061*
X0383547Y0379755*
X0383844Y0379468*
X0384159Y0379204*
X0384493Y0378961*
X0384843Y0378743*
X0385206Y0378549*
X0385583Y0378382*
X038597Y0378241*
X0386367Y0378127*
X038677Y0378041*
X0387178Y0377984*
X0387589Y0377955*
X0388002*
X0388413Y0377984*
X0388821Y0378041*
X0389224Y0378127*
X0389621Y0378241*
X0390008Y0378382*
X0390385Y0378549*
X0390749Y0378743*
X0391098Y0378961*
X0391432Y0379204*
X0391747Y0379468*
X0392044Y0379755*
X039232Y0380061*
X0392574Y0380386*
X0392804Y0380728*
X039301Y0381085*
X0393191Y0381455*
X0393345Y0381838*
X0393473Y038223*
X0393572Y038263*
X0393644Y0383036*
X0393687Y0383446*
X0393701Y0383858*
Y0438976D02*
D01*
X0393686Y0439387*
X0393643Y0439797*
X0393571Y0440203*
X0393472Y0440603*
X0393344Y0440995*
X039319Y0441378*
X0393009Y0441748*
X0392803Y0442105*
X0392573Y0442447*
X0392319Y0442772*
X0392043Y0443078*
X0391746Y0443365*
X0391431Y0443629*
X0391097Y0443872*
X0390748Y044409*
X0390384Y0444284*
X0390007Y0444451*
X038962Y0444592*
X0389223Y0444706*
X038882Y0444792*
X0388412Y0444849*
X0388001Y0444878*
X0387588*
X0387177Y0444849*
X0386769Y0444792*
X0386366Y0444706*
X0385969Y0444592*
X0385582Y0444451*
X0385205Y0444284*
X0384842Y044409*
X0384492Y0443872*
X0384158Y0443629*
X0383843Y0443365*
X0383546Y0443078*
X038327Y0442772*
X0383016Y0442447*
X0382786Y0442105*
X038258Y0441748*
X0382399Y0441378*
X0382245Y0440995*
X0382117Y0440603*
X0382018Y0440203*
X0381946Y0439797*
X0381903Y0439387*
X038189Y0438976*
Y0462598D02*
D01*
X0381904Y0462186*
X0381947Y0461776*
X0382019Y046137*
X0382118Y046097*
X0382246Y0460578*
X03824Y0460195*
X0382581Y0459825*
X0382787Y0459468*
X0383017Y0459126*
X0383271Y0458801*
X0383547Y0458495*
X0383844Y0458208*
X0384159Y0457944*
X0384493Y0457701*
X0384843Y0457483*
X0385206Y0457289*
X0385583Y0457122*
X038597Y0456981*
X0386367Y0456867*
X038677Y0456781*
X0387178Y0456724*
X0387589Y0456695*
X0388002*
X0388413Y0456724*
X0388821Y0456781*
X0389224Y0456867*
X0389621Y0456981*
X0390008Y0457122*
X0390385Y0457289*
X0390749Y0457483*
X0391098Y0457701*
X0391432Y0457944*
X0391747Y0458208*
X0392044Y0458495*
X039232Y0458801*
X0392574Y0459126*
X0392804Y0459468*
X039301Y0459825*
X0393191Y0460195*
X0393345Y0460578*
X0393473Y046097*
X0393572Y046137*
X0393644Y0461776*
X0393687Y0462186*
X0393701Y0462598*
X038189Y0314961D02*
D01*
X0381904Y0314549*
X0381947Y0314139*
X0382019Y0313733*
X0382118Y0313333*
X0382246Y0312941*
X03824Y0312558*
X0382581Y0312188*
X0382787Y0311831*
X0383017Y0311489*
X0383271Y0311164*
X0383547Y0310858*
X0383844Y0310571*
X0384159Y0310307*
X0384493Y0310064*
X0384843Y0309846*
X0385206Y0309652*
X0385583Y0309485*
X038597Y0309344*
X0386367Y030923*
X038677Y0309144*
X0387178Y0309087*
X0387589Y0309058*
X0388002*
X0388413Y0309087*
X0388821Y0309144*
X0389224Y030923*
X0389621Y0309344*
X0390008Y0309485*
X0390385Y0309652*
X0390749Y0309846*
X0391098Y0310064*
X0391432Y0310307*
X0391747Y0310571*
X0392044Y0310858*
X039232Y0311164*
X0392574Y0311489*
X0392804Y0311831*
X039301Y0312188*
X0393191Y0312558*
X0393345Y0312941*
X0393473Y0313333*
X0393572Y0313733*
X0393644Y0314139*
X0393687Y0314549*
X0393701Y0314961*
Y0291339D02*
D01*
X0393686Y029175*
X0393643Y029216*
X0393571Y0292566*
X0393472Y0292966*
X0393344Y0293358*
X039319Y0293741*
X0393009Y0294111*
X0392803Y0294468*
X0392573Y029481*
X0392319Y0295135*
X0392043Y0295441*
X0391746Y0295728*
X0391431Y0295992*
X0391097Y0296235*
X0390748Y0296453*
X0390384Y0296647*
X0390007Y0296814*
X038962Y0296955*
X0389223Y0297069*
X038882Y0297155*
X0388412Y0297212*
X0388001Y0297241*
X0387588*
X0387177Y0297212*
X0386769Y0297155*
X0386366Y0297069*
X0385969Y0296955*
X0385582Y0296814*
X0385205Y0296647*
X0384842Y0296453*
X0384492Y0296235*
X0384158Y0295992*
X0383843Y0295728*
X0383546Y0295441*
X038327Y0295135*
X0383016Y029481*
X0382786Y0294468*
X038258Y0294111*
X0382399Y0293741*
X0382245Y0293358*
X0382117Y0292966*
X0382018Y0292566*
X0381946Y029216*
X0381903Y029175*
X0381889Y0291339*
X038189Y0291338*
X0531496Y0549213D02*
D01*
X0531481Y0549624*
X0531438Y0550034*
X0531366Y055044*
X0531267Y055084*
X0531139Y0551232*
X0530985Y0551615*
X0530804Y0551985*
X0530598Y0552342*
X0530368Y0552684*
X0530114Y0553009*
X0529838Y0553315*
X0529541Y0553602*
X0529226Y0553866*
X0528892Y0554109*
X0528543Y0554327*
X0528179Y0554521*
X0527802Y0554688*
X0527415Y0554829*
X0527018Y0554943*
X0526615Y0555029*
X0526207Y0555086*
X0525796Y0555115*
X0525383*
X0524972Y0555086*
X0524564Y0555029*
X0524161Y0554943*
X0523764Y0554829*
X0523377Y0554688*
X0523Y0554521*
X0522637Y0554327*
X0522287Y0554109*
X0521953Y0553866*
X0521638Y0553602*
X0521341Y0553315*
X0521065Y0553009*
X0520811Y0552684*
X0520581Y0552342*
X0520375Y0551985*
X0520194Y0551615*
X052004Y0551232*
X0519912Y055084*
X0519813Y055044*
X0519741Y0550034*
X0519698Y0549624*
X0519685Y0549213*
Y0543307D02*
D01*
X0519699Y0542895*
X0519742Y0542485*
X0519814Y0542079*
X0519913Y0541679*
X0520041Y0541287*
X0520195Y0540904*
X0520376Y0540534*
X0520582Y0540177*
X0520812Y0539835*
X0521066Y053951*
X0521342Y0539204*
X0521639Y0538917*
X0521954Y0538653*
X0522288Y053841*
X0522638Y0538192*
X0523001Y0537998*
X0523378Y0537831*
X0523765Y053769*
X0524162Y0537576*
X0524565Y053749*
X0524973Y0537433*
X0525384Y0537404*
X0525797*
X0526208Y0537433*
X0526616Y053749*
X0527019Y0537576*
X0527416Y053769*
X0527803Y0537831*
X052818Y0537998*
X0528544Y0538192*
X0528893Y053841*
X0529227Y0538653*
X0529542Y0538917*
X0529839Y0539204*
X0530115Y053951*
X0530369Y0539835*
X0530599Y0540177*
X0530805Y0540534*
X0530986Y0540904*
X053114Y0541287*
X0531268Y0541679*
X0531367Y0542079*
X0531439Y0542485*
X0531482Y0542895*
X0531496Y0543307*
X0519685Y0572835D02*
D01*
X0519699Y0572423*
X0519742Y0572013*
X0519814Y0571607*
X0519913Y0571207*
X0520041Y0570815*
X0520195Y0570432*
X0520376Y0570062*
X0520582Y0569705*
X0520812Y0569363*
X0521066Y0569038*
X0521342Y0568732*
X0521639Y0568445*
X0521954Y0568181*
X0522288Y0567938*
X0522638Y056772*
X0523001Y0567526*
X0523378Y0567359*
X0523765Y0567218*
X0524162Y0567104*
X0524565Y0567018*
X0524973Y0566961*
X0525384Y0566932*
X0525797*
X0526208Y0566961*
X0526616Y0567018*
X0527019Y0567104*
X0527416Y0567218*
X0527803Y0567359*
X052818Y0567526*
X0528544Y056772*
X0528893Y0567938*
X0529227Y0568181*
X0529542Y0568445*
X0529839Y0568732*
X0530115Y0569038*
X0530369Y0569363*
X0530599Y0569705*
X0530805Y0570062*
X0530986Y0570432*
X053114Y0570815*
X0531268Y0571207*
X0531367Y0571607*
X0531439Y0572013*
X0531482Y0572423*
X0531496Y0572835*
Y0519685D02*
D01*
X0531481Y0520096*
X0531438Y0520506*
X0531366Y0520912*
X0531267Y0521312*
X0531139Y0521704*
X0530985Y0522087*
X0530804Y0522457*
X0530598Y0522814*
X0530368Y0523156*
X0530114Y0523481*
X0529838Y0523787*
X0529541Y0524074*
X0529226Y0524338*
X0528892Y0524581*
X0528543Y0524799*
X0528179Y0524993*
X0527802Y052516*
X0527415Y0525301*
X0527018Y0525415*
X0526615Y0525501*
X0526207Y0525558*
X0525796Y0525587*
X0525383*
X0524972Y0525558*
X0524564Y0525501*
X0524161Y0525415*
X0523764Y0525301*
X0523377Y052516*
X0523Y0524993*
X0522637Y0524799*
X0522287Y0524581*
X0521953Y0524338*
X0521638Y0524074*
X0521341Y0523787*
X0521065Y0523481*
X0520811Y0523156*
X0520581Y0522814*
X0520375Y0522457*
X0520194Y0522087*
X052004Y0521704*
X0519912Y0521312*
X0519813Y0520912*
X0519741Y0520506*
X0519698Y0520096*
X0519685Y0519685*
X0511811Y05D02*
X0519685Y0507874D01*
X015187Y0458661D02*
Y0584646D01*
X0143996Y0450787D02*
X015187Y0458661D01*
X0126279Y0450787D02*
X0143996D01*
X0126279Y0403543D02*
Y0450787D01*
Y0403543D02*
X0143996D01*
X015187Y0395669*
Y0269685D02*
Y0395669D01*
Y0269685D02*
X038189D01*
X015187Y0584646D02*
X038189D01*
X0405512Y0579528D02*
X0413386Y0587402D01*
X0511811*
X0519685Y0579528*
X0413386Y05D02*
X0511811D01*
X0405512Y0507874D02*
X0413386Y05D01*
X0393701Y0279527D02*
X0403543Y0269685D01*
X0393701Y0478346D02*
X0403543Y0488189D01*
X0683071Y0269685D02*
X0692913Y0279527D01*
X0403543Y0269685D02*
X0683071D01*
X0692913Y0279527D02*
Y0600394D01*
X0683071Y0610236D02*
X0692913Y0600394D01*
X0541338Y0610236D02*
X0683071D01*
X0531496Y0600394D02*
X0541338Y0610236D01*
X0525591Y0488189D02*
X0531496Y0494095D01*
X0403543Y0488189D02*
X0525591D01*
X0387795Y0517717D02*
X0399606D01*
X0387795Y0529528D02*
X0399606D01*
X0387795Y0557087D02*
X0399606D01*
X0387795Y0568898D02*
X0399606D01*
M02*