%FSTAX25Y25*%
%MOIN*%
%SFA1B1*%

%IPPOS*%
%AMD10*
4,1,8,0.021800,0.025600,-0.021800,0.025600,-0.029500,0.017900,-0.029500,-0.017900,-0.021800,-0.025600,0.021800,-0.025600,0.029500,-0.017900,0.029500,0.017900,0.021800,0.025600,0.0*
1,1,0.015360,0.021800,0.017900*
1,1,0.015360,-0.021800,0.017900*
1,1,0.015360,-0.021800,-0.017900*
1,1,0.015360,0.021800,-0.017900*
%
%AMD11*
4,1,8,-0.021700,0.010200,-0.021700,-0.010200,-0.019100,-0.012800,0.019100,-0.012800,0.021700,-0.010200,0.021700,0.010200,0.019100,0.012800,-0.019100,0.012800,-0.021700,0.010200,0.0*
1,1,0.005120,-0.019100,0.010200*
1,1,0.005120,-0.019100,-0.010200*
1,1,0.005120,0.019100,-0.010200*
1,1,0.005120,0.019100,0.010200*
%
%AMD12*
4,1,8,0.025600,-0.021800,0.025600,0.021800,0.017900,0.029500,-0.017900,0.029500,-0.025600,0.021800,-0.025600,-0.021800,-0.017900,-0.029500,0.017900,-0.029500,0.025600,-0.021800,0.0*
1,1,0.015360,0.017900,-0.021800*
1,1,0.015360,0.017900,0.021800*
1,1,0.015360,-0.017900,0.021800*
1,1,0.015360,-0.017900,-0.021800*
%
%AMD13*
4,1,8,0.005600,0.059100,-0.005600,0.059100,-0.008100,0.056600,-0.008100,-0.056600,-0.005600,-0.059100,0.005600,-0.059100,0.008100,-0.056600,0.008100,0.056600,0.005600,0.059100,0.0*
1,1,0.004840,0.005600,0.056600*
1,1,0.004840,-0.005600,0.056600*
1,1,0.004840,-0.005600,-0.056600*
1,1,0.004840,0.005600,-0.056600*
%
%AMD15*
4,1,8,0.035400,-0.040200,0.035400,0.040200,0.028300,0.047200,-0.028300,0.047200,-0.035400,0.040200,-0.035400,-0.040200,-0.028300,-0.047200,0.028300,-0.047200,0.035400,-0.040200,0.0*
1,1,0.014180,0.028300,-0.040200*
1,1,0.014180,0.028300,0.040200*
1,1,0.014180,-0.028300,0.040200*
1,1,0.014180,-0.028300,-0.040200*
%
%AMD16*
4,1,8,0.027800,0.025600,-0.027800,0.025600,-0.035400,0.017900,-0.035400,-0.017900,-0.027800,-0.025600,0.027800,-0.025600,0.035400,-0.017900,0.035400,0.017900,0.027800,0.025600,0.0*
1,1,0.015360,0.027800,0.017900*
1,1,0.015360,-0.027800,0.017900*
1,1,0.015360,-0.027800,-0.017900*
1,1,0.015360,0.027800,-0.017900*
%
%AMD17*
4,1,8,-0.012600,-0.017100,0.012600,-0.017100,0.017700,-0.012000,0.017700,0.012000,0.012600,0.017100,-0.012600,0.017100,-0.017700,0.012000,-0.017700,-0.012000,-0.012600,-0.017100,0.0*
1,1,0.010280,-0.012600,-0.012000*
1,1,0.010280,0.012600,-0.012000*
1,1,0.010280,0.012600,0.012000*
1,1,0.010280,-0.012600,0.012000*
%
%AMD18*
4,1,8,-0.017100,0.012600,-0.017100,-0.012600,-0.012000,-0.017700,0.012000,-0.017700,0.017100,-0.012600,0.017100,0.012600,0.012000,0.017700,-0.012000,0.017700,-0.017100,0.012600,0.0*
1,1,0.010280,-0.012000,0.012600*
1,1,0.010280,-0.012000,-0.012600*
1,1,0.010280,0.012000,-0.012600*
1,1,0.010280,0.012000,0.012600*
%
%AMD19*
4,1,8,-0.021000,-0.003200,-0.003200,-0.021000,0.004000,-0.021000,0.021000,-0.004000,0.021000,0.003200,0.003200,0.021000,-0.004000,0.021000,-0.021000,0.004000,-0.021000,-0.003200,0.0*
1,1,0.010280,-0.017400,0.000400*
1,1,0.010280,0.000400,-0.017400*
1,1,0.010280,0.017400,-0.000400*
1,1,0.010280,-0.000400,0.017400*
%
%AMD20*
4,1,4,0.025000,0.017000,0.017000,0.025000,-0.025000,-0.017000,-0.017000,-0.025000,0.025000,0.017000,0.0*
1,1,0.011420,0.021000,0.021000*
1,1,0.011420,-0.021000,-0.021000*
%
%AMD21*
4,1,4,0.017000,-0.025000,0.025000,-0.017000,-0.017000,0.025000,-0.025000,0.017000,0.017000,-0.025000,0.0*
1,1,0.011420,0.021000,-0.021000*
1,1,0.011420,-0.021000,0.021000*
%
%AMD23*
4,1,8,-0.037400,0.008300,-0.037400,-0.008300,-0.033900,-0.011800,0.033900,-0.011800,0.037400,-0.008300,0.037400,0.008300,0.033900,0.011800,-0.033900,0.011800,-0.037400,0.008300,0.0*
1,1,0.007080,-0.033900,0.008300*
1,1,0.007080,-0.033900,-0.008300*
1,1,0.007080,0.033900,-0.008300*
1,1,0.007080,0.033900,0.008300*
%
%AMD26*
4,1,8,0.008300,0.025600,-0.008300,0.025600,-0.011800,0.022000,-0.011800,-0.022000,-0.008300,-0.025600,0.008300,-0.025600,0.011800,-0.022000,0.011800,0.022000,0.008300,0.025600,0.0*
1,1,0.007080,0.008300,0.022000*
1,1,0.007080,-0.008300,0.022000*
1,1,0.007080,-0.008300,-0.022000*
1,1,0.007080,0.008300,-0.022000*
%
%AMD27*
4,1,8,-0.025600,0.008300,-0.025600,-0.008300,-0.022000,-0.011800,0.022000,-0.011800,0.025600,-0.008300,0.025600,0.008300,0.022000,0.011800,-0.022000,0.011800,-0.025600,0.008300,0.0*
1,1,0.007080,-0.022000,0.008300*
1,1,0.007080,-0.022000,-0.008300*
1,1,0.007080,0.022000,-0.008300*
1,1,0.007080,0.022000,0.008300*
%
%AMD28*
4,1,8,-0.020500,-0.039400,0.020500,-0.039400,0.025600,-0.034200,0.025600,0.034200,0.020500,0.039400,-0.020500,0.039400,-0.025600,0.034200,-0.025600,-0.034200,-0.020500,-0.039400,0.0*
1,1,0.010240,-0.020500,-0.034200*
1,1,0.010240,0.020500,-0.034200*
1,1,0.010240,0.020500,0.034200*
1,1,0.010240,-0.020500,0.034200*
%
%AMD29*
4,1,8,-0.031500,-0.039400,0.031500,-0.039400,0.039400,-0.031500,0.039400,0.031500,0.031500,0.039400,-0.031500,0.039400,-0.039400,0.031500,-0.039400,-0.031500,-0.031500,-0.039400,0.0*
1,1,0.015740,-0.031500,-0.031500*
1,1,0.015740,0.031500,-0.031500*
1,1,0.015740,0.031500,0.031500*
1,1,0.015740,-0.031500,0.031500*
%
%AMD32*
4,1,8,-0.008300,-0.037400,0.008300,-0.037400,0.011800,-0.033900,0.011800,0.033900,0.008300,0.037400,-0.008300,0.037400,-0.011800,0.033900,-0.011800,-0.033900,-0.008300,-0.037400,0.0*
1,1,0.007080,-0.008300,-0.033900*
1,1,0.007080,0.008300,-0.033900*
1,1,0.007080,0.008300,0.033900*
1,1,0.007080,-0.008300,0.033900*
%
%AMD33*
4,1,8,0.026100,0.024600,-0.026100,0.024600,-0.033500,0.017200,-0.033500,-0.017200,-0.026100,-0.024600,0.026100,-0.024600,0.033500,-0.017200,0.033500,0.017200,0.026100,0.024600,0.0*
1,1,0.014760,0.026100,0.017200*
1,1,0.014760,-0.026100,0.017200*
1,1,0.014760,-0.026100,-0.017200*
1,1,0.014760,0.026100,-0.017200*
%
%AMD34*
4,1,8,0.002700,-0.033500,0.033500,-0.002700,0.033500,0.008200,0.008200,0.033500,-0.002700,0.033500,-0.033500,0.002700,-0.033500,-0.008200,-0.008200,-0.033500,0.002700,-0.033500,0.0*
1,1,0.015360,-0.002800,-0.028100*
1,1,0.015360,0.028100,0.002800*
1,1,0.015360,0.002800,0.028100*
1,1,0.015360,-0.028100,-0.002800*
%
%AMD35*
4,1,8,0.020800,0.029100,-0.020800,0.029100,-0.029500,0.020400,-0.029500,-0.020400,-0.020800,-0.029100,0.020800,-0.029100,0.029500,-0.020400,0.029500,0.020400,0.020800,0.029100,0.0*
1,1,0.017480,0.020800,0.020400*
1,1,0.017480,-0.020800,0.020400*
1,1,0.017480,-0.020800,-0.020400*
1,1,0.017480,0.020800,-0.020400*
%
%AMD36*
4,1,8,-0.048400,-0.053100,0.048400,-0.053100,0.059100,-0.042500,0.059100,0.042500,0.048400,0.053100,-0.048400,0.053100,-0.059100,0.042500,-0.059100,-0.042500,-0.048400,-0.053100,0.0*
1,1,0.021260,-0.048400,-0.042500*
1,1,0.021260,0.048400,-0.042500*
1,1,0.021260,0.048400,0.042500*
1,1,0.021260,-0.048400,0.042500*
%
%AMD39*
4,1,8,0.056300,0.035400,-0.056300,0.035400,-0.066900,0.024800,-0.066900,-0.024800,-0.056300,-0.035400,0.056300,-0.035400,0.066900,-0.024800,0.066900,0.024800,0.056300,0.035400,0.0*
1,1,0.021260,0.056300,0.024800*
1,1,0.021260,-0.056300,0.024800*
1,1,0.021260,-0.056300,-0.024800*
1,1,0.021260,0.056300,-0.024800*
%
%AMD40*
4,1,8,0.016100,0.009000,-0.016100,0.009000,-0.017000,0.008100,-0.017000,-0.008100,-0.016100,-0.009000,0.016100,-0.009000,0.017000,-0.008100,0.017000,0.008100,0.016100,0.009000,0.0*
1,1,0.001800,0.016100,0.008100*
1,1,0.001800,-0.016100,0.008100*
1,1,0.001800,-0.016100,-0.008100*
1,1,0.001800,0.016100,-0.008100*
%
%AMD41*
4,1,8,-0.024600,0.026100,-0.024600,-0.026100,-0.017200,-0.033500,0.017200,-0.033500,0.024600,-0.026100,0.024600,0.026100,0.017200,0.033500,-0.017200,0.033500,-0.024600,0.026100,0.0*
1,1,0.014760,-0.017200,0.026100*
1,1,0.014760,-0.017200,-0.026100*
1,1,0.014760,0.017200,-0.026100*
1,1,0.014760,0.017200,0.026100*
%
%AMD42*
4,1,8,-0.145700,0.102900,-0.145700,-0.102900,-0.140300,-0.108300,0.140300,-0.108300,0.145700,-0.102900,0.145700,0.102900,0.140300,0.108300,-0.140300,0.108300,-0.145700,0.102900,0.0*
1,1,0.010820,-0.140300,0.102900*
1,1,0.010820,-0.140300,-0.102900*
1,1,0.010820,0.140300,-0.102900*
1,1,0.010820,0.140300,0.102900*
%
%AMD43*
4,1,8,-0.037400,0.015000,-0.037400,-0.015000,-0.033700,-0.018700,0.033700,-0.018700,0.037400,-0.015000,0.037400,0.015000,0.033700,0.018700,-0.033700,0.018700,-0.037400,0.015000,0.0*
1,1,0.007480,-0.033700,0.015000*
1,1,0.007480,-0.033700,-0.015000*
1,1,0.007480,0.033700,-0.015000*
1,1,0.007480,0.033700,0.015000*
%
%AMD44*
4,1,8,-0.029400,-0.084100,0.029400,-0.084100,0.032700,-0.080800,0.032700,0.080800,0.029400,0.084100,-0.029400,0.084100,-0.032700,0.080800,-0.032700,-0.080800,-0.029400,-0.084100,0.0*
1,1,0.006540,-0.029400,-0.080800*
1,1,0.006540,0.029400,-0.080800*
1,1,0.006540,0.029400,0.080800*
1,1,0.006540,-0.029400,0.080800*
%
%AMD45*
4,1,8,-0.142000,-0.084100,0.142000,-0.084100,0.150400,-0.075600,0.150400,0.075600,0.142000,0.084100,-0.142000,0.084100,-0.150400,0.075600,-0.150400,-0.075600,-0.142000,-0.084100,0.0*
1,1,0.016820,-0.142000,-0.075600*
1,1,0.016820,0.142000,-0.075600*
1,1,0.016820,0.142000,0.075600*
1,1,0.016820,-0.142000,0.075600*
%
%AMD46*
4,1,8,0.040200,0.035400,-0.040200,0.035400,-0.047200,0.028300,-0.047200,-0.028300,-0.040200,-0.035400,0.040200,-0.035400,0.047200,-0.028300,0.047200,0.028300,0.040200,0.035400,0.0*
1,1,0.014180,0.040200,0.028300*
1,1,0.014180,-0.040200,0.028300*
1,1,0.014180,-0.040200,-0.028300*
1,1,0.014180,0.040200,-0.028300*
%
%AMD47*
4,1,8,-0.006900,-0.026600,0.006900,-0.026600,0.013800,-0.019700,0.013800,0.019700,0.006900,0.026600,-0.006900,0.026600,-0.013800,0.019700,-0.013800,-0.019700,-0.006900,-0.026600,0.0*
1,1,0.013780,-0.006900,-0.019700*
1,1,0.013780,0.006900,-0.019700*
1,1,0.013780,0.006900,0.019700*
1,1,0.013780,-0.006900,0.019700*
%
%AMD48*
4,1,8,-0.006900,-0.040400,0.006900,-0.040400,0.013800,-0.033500,0.013800,0.033500,0.006900,0.040400,-0.006900,0.040400,-0.013800,0.033500,-0.013800,-0.033500,-0.006900,-0.040400,0.0*
1,1,0.013780,-0.006900,-0.033500*
1,1,0.013780,0.006900,-0.033500*
1,1,0.013780,0.006900,0.033500*
1,1,0.013780,-0.006900,0.033500*
%
%AMD49*
4,1,8,-0.018700,-0.065000,0.018700,-0.065000,0.037400,-0.046300,0.037400,0.046300,0.018700,0.065000,-0.018700,0.065000,-0.037400,0.046300,-0.037400,-0.046300,-0.018700,-0.065000,0.0*
1,1,0.037400,-0.018700,-0.046300*
1,1,0.037400,0.018700,-0.046300*
1,1,0.037400,0.018700,0.046300*
1,1,0.037400,-0.018700,0.046300*
%
%AMD50*
4,1,8,0.052000,0.060000,-0.052000,0.060000,-0.064000,0.048000,-0.064000,-0.048000,-0.052000,-0.060000,0.052000,-0.060000,0.064000,-0.048000,0.064000,0.048000,0.052000,0.060000,0.0*
1,1,0.024000,0.052000,0.048000*
1,1,0.024000,-0.052000,0.048000*
1,1,0.024000,-0.052000,-0.048000*
1,1,0.024000,0.052000,-0.048000*
%
%AMD51*
4,1,8,0.025600,-0.027800,0.025600,0.027800,0.017900,0.035400,-0.017900,0.035400,-0.025600,0.027800,-0.025600,-0.027800,-0.017900,-0.035400,0.017900,-0.035400,0.025600,-0.027800,0.0*
1,1,0.015360,0.017900,-0.027800*
1,1,0.015360,0.017900,0.027800*
1,1,0.015360,-0.017900,0.027800*
1,1,0.015360,-0.017900,-0.027800*
%
%AMD52*
4,1,8,-0.067500,0.103500,-0.067500,-0.103500,-0.060700,-0.110200,0.060700,-0.110200,0.067500,-0.103500,0.067500,0.103500,0.060700,0.110200,-0.060700,0.110200,-0.067500,0.103500,0.0*
1,1,0.013500,-0.060700,0.103500*
1,1,0.013500,-0.060700,-0.103500*
1,1,0.013500,0.060700,-0.103500*
1,1,0.013500,0.060700,0.103500*
%
%AMD53*
4,1,8,0.104700,0.147600,-0.104700,0.147600,-0.110200,0.142100,-0.110200,-0.142100,-0.104700,-0.147600,0.104700,-0.147600,0.110200,-0.142100,0.110200,0.142100,0.104700,0.147600,0.0*
1,1,0.011020,0.104700,0.142100*
1,1,0.011020,-0.104700,0.142100*
1,1,0.011020,-0.104700,-0.142100*
1,1,0.011020,0.104700,-0.142100*
%
%AMD54*
4,1,8,0.013800,0.045000,-0.013800,0.045000,-0.019700,0.039100,-0.019700,-0.039100,-0.013800,-0.045000,0.013800,-0.045000,0.019700,-0.039100,0.019700,0.039100,0.013800,0.045000,0.0*
1,1,0.011820,0.013800,0.039100*
1,1,0.011820,-0.013800,0.039100*
1,1,0.011820,-0.013800,-0.039100*
1,1,0.011820,0.013800,-0.039100*
%
%AMD55*
4,1,8,0.045300,-0.036200,0.045300,0.036200,0.036200,0.045300,-0.036200,0.045300,-0.045300,0.036200,-0.045300,-0.036200,-0.036200,-0.045300,0.036200,-0.045300,0.045300,-0.036200,0.0*
1,1,0.018120,0.036200,-0.036200*
1,1,0.018120,0.036200,0.036200*
1,1,0.018120,-0.036200,0.036200*
1,1,0.018120,-0.036200,-0.036200*
%
G04~CAMADD=10~8~0.0~0.0~590.6~511.8~76.8~0.0~15~0.0~0.0~0.0~0.0~0~0.0~0.0~0.0~0.0~0~0.0~0.0~0.0~0.0~590.6~511.8*
%ADD10D10*%
G04~CAMADD=11~8~0.0~0.0~255.9~433.1~25.6~0.0~15~0.0~0.0~0.0~0.0~0~0.0~0.0~0.0~0.0~0~0.0~0.0~0.0~90.0~434.0~256.0*
%ADD11D11*%
G04~CAMADD=12~8~0.0~0.0~590.6~511.8~76.8~0.0~15~0.0~0.0~0.0~0.0~0~0.0~0.0~0.0~0.0~0~0.0~0.0~0.0~270.0~512.0~590.0*
%ADD12D12*%
G04~CAMADD=13~8~0.0~0.0~161.4~1181.1~24.2~0.0~15~0.0~0.0~0.0~0.0~0~0.0~0.0~0.0~0.0~0~0.0~0.0~0.0~0.0~161.4~1181.1*
%ADD13D13*%
%ADD14R,0.035430X0.098430*%
G04~CAMADD=15~8~0.0~0.0~944.9~708.7~70.9~0.0~15~0.0~0.0~0.0~0.0~0~0.0~0.0~0.0~0.0~0~0.0~0.0~0.0~270.0~708.0~944.0*
%ADD15D15*%
G04~CAMADD=16~8~0.0~0.0~708.7~511.8~76.8~0.0~15~0.0~0.0~0.0~0.0~0~0.0~0.0~0.0~0.0~0~0.0~0.0~0.0~0.0~708.7~511.8*
%ADD16D16*%
G04~CAMADD=17~8~0.0~0.0~354.3~342.5~51.4~0.0~15~0.0~0.0~0.0~0.0~0~0.0~0.0~0.0~0.0~0~0.0~0.0~0.0~180.0~354.0~343.0*
%ADD17D17*%
G04~CAMADD=18~8~0.0~0.0~354.3~342.5~51.4~0.0~15~0.0~0.0~0.0~0.0~0~0.0~0.0~0.0~0.0~0~0.0~0.0~0.0~90.0~343.0~354.0*
%ADD18D18*%
G04~CAMADD=19~8~0.0~0.0~354.3~342.5~51.4~0.0~15~0.0~0.0~0.0~0.0~0~0.0~0.0~0.0~0.0~0~0.0~0.0~0.0~135.0~450.0~450.0*
%ADD19D19*%
G04~CAMADD=20~3~0.0~0.0~114.2~708.7~0.0~0.0~0~0.0~0.0~0.0~0.0~0~0.0~0.0~0.0~0.0~0~0.0~0.0~0.0~315.0~534.0~534.0*
%ADD20D20*%
G04~CAMADD=21~3~0.0~0.0~114.2~708.7~0.0~0.0~0~0.0~0.0~0.0~0.0~0~0.0~0.0~0.0~0.0~0~0.0~0.0~0.0~225.0~534.0~534.0*
%ADD21D21*%
%ADD22O,0.023620X0.074800*%
G04~CAMADD=23~8~0.0~0.0~236.2~748.0~35.4~0.0~15~0.0~0.0~0.0~0.0~0~0.0~0.0~0.0~0.0~0~0.0~0.0~0.0~90.0~748.0~236.0*
%ADD23D23*%
%ADD24O,0.074800X0.023620*%
%ADD25O,0.013780X0.066930*%
G04~CAMADD=26~8~0.0~0.0~236.2~511.8~35.4~0.0~15~0.0~0.0~0.0~0.0~0~0.0~0.0~0.0~0.0~0~0.0~0.0~0.0~0.0~236.2~511.8*
%ADD26D26*%
G04~CAMADD=27~8~0.0~0.0~236.2~511.8~35.4~0.0~15~0.0~0.0~0.0~0.0~0~0.0~0.0~0.0~0.0~0~0.0~0.0~0.0~90.0~512.0~236.0*
%ADD27D27*%
G04~CAMADD=28~8~0.0~0.0~511.8~787.4~51.2~0.0~15~0.0~0.0~0.0~0.0~0~0.0~0.0~0.0~0.0~0~0.0~0.0~0.0~180.0~512.0~788.0*
%ADD28D28*%
G04~CAMADD=29~8~0.0~0.0~787.4~787.4~78.7~0.0~15~0.0~0.0~0.0~0.0~0~0.0~0.0~0.0~0.0~0~0.0~0.0~0.0~180.0~788.0~788.0*
%ADD29D29*%
%ADD30O,0.066930X0.013780*%
%ADD31O,0.023620X0.086610*%
G04~CAMADD=32~8~0.0~0.0~236.2~748.0~35.4~0.0~15~0.0~0.0~0.0~0.0~0~0.0~0.0~0.0~0.0~0~0.0~0.0~0.0~180.0~236.0~748.0*
%ADD32D32*%
G04~CAMADD=33~8~0.0~0.0~669.3~492.1~73.8~0.0~15~0.0~0.0~0.0~0.0~0~0.0~0.0~0.0~0.0~0~0.0~0.0~0.0~0.0~669.3~492.1*
%ADD33D33*%
G04~CAMADD=34~8~0.0~0.0~590.6~511.8~76.8~0.0~15~0.0~0.0~0.0~0.0~0~0.0~0.0~0.0~0.0~0~0.0~0.0~0.0~225.0~717.0~715.0*
%ADD34D34*%
G04~CAMADD=35~8~0.0~0.0~590.6~582.7~87.4~0.0~15~0.0~0.0~0.0~0.0~0~0.0~0.0~0.0~0.0~0~0.0~0.0~0.0~0.0~590.6~582.7*
%ADD35D35*%
G04~CAMADD=36~8~0.0~0.0~1181.1~1063.0~106.3~0.0~15~0.0~0.0~0.0~0.0~0~0.0~0.0~0.0~0.0~0~0.0~0.0~0.0~180.0~1182.0~1063.0*
%ADD36D36*%
%ADD37O,0.066930X0.016000*%
%ADD38O,0.023620X0.078740*%
G04~CAMADD=39~8~0.0~0.0~1338.6~708.7~106.3~0.0~15~0.0~0.0~0.0~0.0~0~0.0~0.0~0.0~0.0~0~0.0~0.0~0.0~0.0~1338.6~708.7*
%ADD39D39*%
G04~CAMADD=40~8~0.0~0.0~340.0~180.0~9.0~0.0~15~0.0~0.0~0.0~0.0~0~0.0~0.0~0.0~0.0~0~0.0~0.0~0.0~0.0~340.0~180.0*
%ADD40D40*%
G04~CAMADD=41~8~0.0~0.0~669.3~492.1~73.8~0.0~15~0.0~0.0~0.0~0.0~0~0.0~0.0~0.0~0.0~0~0.0~0.0~0.0~90.0~492.0~670.0*
%ADD41D41*%
G04~CAMADD=42~8~0.0~0.0~2165.4~2913.4~54.1~0.0~15~0.0~0.0~0.0~0.0~0~0.0~0.0~0.0~0.0~0~0.0~0.0~0.0~90.0~2914.0~2166.0*
%ADD42D42*%
G04~CAMADD=43~8~0.0~0.0~374.0~748.0~37.4~0.0~15~0.0~0.0~0.0~0.0~0~0.0~0.0~0.0~0.0~0~0.0~0.0~0.0~90.0~748.0~374.0*
%ADD43D43*%
G04~CAMADD=44~8~0.0~0.0~653.5~1681.1~32.7~0.0~15~0.0~0.0~0.0~0.0~0~0.0~0.0~0.0~0.0~0~0.0~0.0~0.0~180.0~654.0~1682.0*
%ADD44D44*%
G04~CAMADD=45~8~0.0~0.0~3007.9~1681.1~84.1~0.0~15~0.0~0.0~0.0~0.0~0~0.0~0.0~0.0~0.0~0~0.0~0.0~0.0~180.0~3008.0~1681.0*
%ADD45D45*%
G04~CAMADD=46~8~0.0~0.0~944.9~708.7~70.9~0.0~15~0.0~0.0~0.0~0.0~0~0.0~0.0~0.0~0.0~0~0.0~0.0~0.0~0.0~944.9~708.7*
%ADD46D46*%
G04~CAMADD=47~8~0.0~0.0~275.6~531.5~68.9~0.0~15~0.0~0.0~0.0~0.0~0~0.0~0.0~0.0~0.0~0~0.0~0.0~0.0~180.0~276.0~532.0*
%ADD47D47*%
G04~CAMADD=48~8~0.0~0.0~275.6~808.7~68.9~0.0~15~0.0~0.0~0.0~0.0~0~0.0~0.0~0.0~0.0~0~0.0~0.0~0.0~180.0~276.0~809.0*
%ADD48D48*%
G04~CAMADD=49~8~0.0~0.0~748.0~1299.2~187.0~0.0~15~0.0~0.0~0.0~0.0~0~0.0~0.0~0.0~0.0~0~0.0~0.0~0.0~180.0~749.0~1300.0*
%ADD49D49*%
G04~CAMADD=50~8~0.0~0.0~1279.5~1200.0~120.0~0.0~15~0.0~0.0~0.0~0.0~0~0.0~0.0~0.0~0.0~0~0.0~0.0~0.0~0.0~1279.5~1200.0*
%ADD50D50*%
G04~CAMADD=51~8~0.0~0.0~708.7~511.8~76.8~0.0~15~0.0~0.0~0.0~0.0~0~0.0~0.0~0.0~0.0~0~0.0~0.0~0.0~270.0~512.0~708.0*
%ADD51D51*%
G04~CAMADD=52~8~0.0~0.0~2204.7~1350.0~67.5~0.0~15~0.0~0.0~0.0~0.0~0~0.0~0.0~0.0~0.0~0~0.0~0.0~0.0~90.0~1350.0~2204.0*
%ADD52D52*%
G04~CAMADD=53~8~0.0~0.0~2204.7~2952.8~55.1~0.0~15~0.0~0.0~0.0~0.0~0~0.0~0.0~0.0~0.0~0~0.0~0.0~0.0~0.0~2204.7~2952.8*
%ADD53D53*%
G04~CAMADD=54~8~0.0~0.0~393.7~900.0~59.1~0.0~15~0.0~0.0~0.0~0.0~0~0.0~0.0~0.0~0.0~0~0.0~0.0~0.0~0.0~393.7~900.0*
%ADD54D54*%
G04~CAMADD=55~8~0.0~0.0~905.5~905.5~90.6~0.0~15~0.0~0.0~0.0~0.0~0~0.0~0.0~0.0~0.0~0~0.0~0.0~0.0~270.0~906.0~906.0*
%ADD55D55*%
%ADD117C,0.008000*%
%LNunisolder52_full-1*%
%LPD*%
G36*
X048006Y0570207D02*
Y0569321D01*
X0476812Y0566073*
X0473859*
Y0569813*
X0475139*
X0476516Y0571191*
X048006Y0570207*
G37*
G36*
X0467658Y0569813D02*
X0468938D01*
Y0566073*
X0465985*
X0462737Y0569321*
Y0570207*
X046628Y0571191*
X0467658Y0569813*
G37*
G36*
X048006Y0580148D02*
Y0579262D01*
X0476516Y0578278*
X0475139Y0579656*
X0473859*
Y0583396*
X0476812*
X048006Y0580148*
G37*
G36*
X0468938Y0579656D02*
X0467658D01*
X046628Y0578278*
X0462737Y0579262*
Y0580148*
X0465985Y0583396*
X0468938*
Y0579656*
G37*
G54D10*
X0493799Y0555905D03*
Y0563386D03*
X0412598Y0532423D03*
Y0539903D03*
X0513798Y0512423D03*
Y0519903D03*
X0411698Y0511723D03*
Y0519203D03*
X0438909Y0527984D03*
Y0535464D03*
X0466608Y0535546D03*
Y0543027D03*
X0431109Y0527984D03*
Y0535464D03*
X0493598Y0577803D03*
Y0570323D03*
X0484998Y0568723D03*
Y0576203D03*
X0449909Y0545258D03*
Y0537778D03*
X0512697Y0538386D03*
Y0545866D03*
X0474409Y0535531D03*
Y0543012D03*
X0171591Y0555125D03*
Y0562605D03*
X0332874Y0426575D03*
Y0419095D03*
X0353445Y0303346D03*
Y0310827D03*
X0312291Y0557925D03*
Y0565406D03*
X024574Y0335405D03*
Y0327925D03*
X0217391Y0335405D03*
Y0327925D03*
X0237841Y0335405D03*
Y0327925D03*
X0225291Y0335405D03*
Y0327925D03*
X0334841Y0533533D03*
Y0526053D03*
X0327041Y0533433D03*
Y0525953D03*
X0362608Y055767D03*
Y056515D03*
X0163791Y0558315D03*
Y0550835D03*
X0353883Y0572193D03*
Y0579674D03*
X0336091Y0334705D03*
Y0327225D03*
X0371376Y0546338D03*
Y0553819D03*
X0370491Y0313987D03*
Y0321468D03*
X0362108Y057965D03*
Y057217D03*
X0300491Y0348406D03*
Y0340925D03*
X0292691D03*
Y0348406D03*
X0177491Y0417906D03*
Y0410425D03*
X0185291Y0417906D03*
Y0410425D03*
X020315Y0339469D03*
Y0331988D03*
X0375491Y0351905D03*
Y0344425D03*
Y0366506D03*
Y0359025D03*
X0356091Y0391406D03*
Y0383925D03*
X0560335Y0325984D03*
Y0318504D03*
X0515255Y0318799D03*
Y0311319D03*
X0516928Y0325787D03*
Y0333268D03*
X058189Y0432776D03*
Y0440256D03*
X0618209Y0431989D03*
Y0424508D03*
X0625984Y0438878D03*
Y0431398D03*
X0545635Y0441558D03*
Y0449038D03*
X04247Y042368D03*
Y0431161D03*
X04325Y042368D03*
Y0431161D03*
X0480628Y0406636D03*
Y0414116D03*
X0596949Y0309842D03*
Y0302362D03*
X0488347Y0406636D03*
Y0414116D03*
X0618209Y0464764D03*
Y0457284D03*
X0625984Y0471654D03*
Y0464174D03*
X0531004Y0417717D03*
Y0425197D03*
X058189Y0465453D03*
Y0472934D03*
X04409Y0389121D03*
Y0396602D03*
X047286Y0389303D03*
Y0381823D03*
G54D11*
X0476123Y0560275D03*
Y0556535D03*
Y0552795D03*
X0466674D03*
Y0556535D03*
Y0560275D03*
X0333376Y0511829D03*
Y051557D03*
Y051931D03*
X0342825D03*
Y051557D03*
Y0511829D03*
G54D12*
X0481791Y0541634D03*
X0489272D03*
X0337795Y0450984D03*
X0345276D03*
X0287402Y0303642D03*
X0294882D03*
X0324833Y0565506D03*
X0332314D03*
X0326431Y0573265D03*
X0318951D03*
X0309151Y0316465D03*
X0316632D03*
X0254451Y0345702D03*
X0261931D03*
X0339051Y0571665D03*
X0346532D03*
X0350492Y0293602D03*
X0357972D03*
X0177833Y0358265D03*
X0170353D03*
X0298131Y0526665D03*
X0290651D03*
X0355231Y0563865D03*
X0347751D03*
X0209651Y0569365D03*
X0217131D03*
X02176Y0404365D03*
X021012D03*
X0215667Y0449565D03*
X0208187D03*
X02136Y0458365D03*
X020612D03*
X0293451Y0332365D03*
X0300932D03*
X0359744Y0328838D03*
X0367225D03*
X0363451Y0389665D03*
X0370932D03*
X0272051Y0376142D03*
X0279532D03*
X0341831Y0502264D03*
X0349311D03*
X0351101Y0494465D03*
X0358581D03*
X035374Y0531988D03*
X034626D03*
X0336701Y0494465D03*
X0344181D03*
X0268851Y0345702D03*
X0276331D03*
X0362697Y0510039D03*
X0355216D03*
X0287402Y0295866D03*
X0294882D03*
X0293851Y0356965D03*
X0301331D03*
X0180197Y0344765D03*
X0172717D03*
X0328651Y0356665D03*
X0336132D03*
X0328051Y0367065D03*
X0335531D03*
X0364469Y0502264D03*
X0356988D03*
X059065Y0480315D03*
X0583169D03*
X0588681Y0447638D03*
X0581201D03*
X0595669Y0447933D03*
X060315D03*
X0596555Y0427658D03*
X0589075D03*
X0654841Y0328235D03*
X0662321D03*
X052933Y0440453D03*
X0536811D03*
X0660335Y0469488D03*
X0652854D03*
X0596555Y0460434D03*
X0589075D03*
X0457181Y0424588D03*
X0449701D03*
X0597638Y0480709D03*
X0605118D03*
X062628Y0401279D03*
X0618799D03*
X0582579Y0392618D03*
X0575098D03*
X0582579Y0400393D03*
X0575098D03*
G54D13*
X0422648Y0513794D03*
X0425404D03*
X042816D03*
X0430916D03*
X0433672D03*
X0469498D03*
X0472254D03*
X047501D03*
X0477766D03*
X0480522D03*
X0483278D03*
X0486034D03*
X048879D03*
X0491546D03*
X0494302D03*
X0497057D03*
X0499813D03*
X0502569D03*
X0436427D03*
X0439183D03*
X0441939D03*
X0444695D03*
X0447451D03*
X0450207D03*
X0452963D03*
X0455719D03*
X0458475D03*
X0461231D03*
X0463987D03*
X0466743D03*
G54D14*
X0464509Y0574735D03*
X0478288D03*
G54D15*
X0454173Y0558709D03*
Y0574851D03*
X0606299Y0303051D03*
Y0319193D03*
X0469027Y0404992D03*
Y0421134D03*
G54D16*
X0458268Y0535236D03*
Y0546653D03*
X0440705Y0322569D03*
Y0333986D03*
X0464542Y0377908D03*
Y0389325D03*
G54D17*
X0301391Y029648D03*
Y0291251D03*
X0236191Y0525179D03*
Y0519951D03*
X0234547Y0362933D03*
Y0357705D03*
X0327633Y0549114D03*
Y0554342D03*
X0221692Y0546825D03*
Y0541597D03*
X03486Y0520746D03*
Y0515518D03*
X0362795Y0486472D03*
Y0481244D03*
X0330217Y0506945D03*
Y0501717D03*
X0338991Y030188D03*
Y0296651D03*
X0160391Y041878D03*
Y0413551D03*
X0170823Y0413651D03*
Y041888D03*
X0240846Y0456945D03*
Y0451717D03*
X0237992Y0385772D03*
Y0391D03*
G54D18*
X0261977Y0579265D03*
X0267206D03*
X0231877Y0565965D03*
X0237105D03*
X0189203Y0359461D03*
X0183975D03*
X0243005Y0437465D03*
X0237777D03*
X0202377Y0395165D03*
X0207606D03*
X0296577Y0320965D03*
X0301805D03*
X0302406Y0363565D03*
X0297177D03*
X0296406Y0533265D03*
X0291177D03*
X0285677Y0568165D03*
X0290905D03*
X0205961Y0345669D03*
X0200732D03*
X0208417Y0528821D03*
X0203188D03*
X0181671Y047968D03*
X0176443D03*
X0240677Y0502665D03*
X0245905D03*
Y0496265D03*
X0240677D03*
X0327377Y0342765D03*
X0332606D03*
X0181705Y0471965D03*
X0176477D03*
G54D19*
X024944Y0575414D03*
X0245743Y0571717D03*
G54D20*
X0289282Y0552376D03*
X028789Y0553768D03*
X0286498Y055516D03*
X0285106Y0556552D03*
X0283714Y0557944D03*
X0282322Y0559336D03*
X028093Y0560728D03*
X0279538Y056212D03*
X0278146Y0563512D03*
X0276754Y0564904D03*
X0275362Y0566296D03*
X027397Y0567688D03*
X0272578Y056908D03*
X0271186Y0570472D03*
X0269794Y0571864D03*
X0268402Y0573255D03*
X0237501Y0542354D03*
X0238893Y0540962D03*
X0240285Y0539571D03*
X0241677Y0538178D03*
X0243069Y0536787D03*
X0244461Y0535395D03*
X0245853Y0534003D03*
X0247245Y0532611D03*
X0248637Y0531219D03*
X0250029Y0529827D03*
X0251421Y0528435D03*
X0252813Y0527043D03*
X0254205Y0525651D03*
X0255596Y0524259D03*
X0256988Y0522867D03*
X025838Y0521475D03*
G54D21*
X025838Y0573255D03*
X0256988Y0571864D03*
X0255596Y0570472D03*
X0254205Y056908D03*
X0252813Y0567688D03*
X0251421Y0566296D03*
X0250029Y0564904D03*
X0248637Y0563512D03*
X0247245Y056212D03*
X0245853Y0560728D03*
X0244461Y0559336D03*
X0243069Y0557944D03*
X0241677Y0556552D03*
X0240285Y055516D03*
X0238893Y0553768D03*
X0237501Y0552376D03*
X0268402Y0521475D03*
X0269794Y0522867D03*
X0271186Y0524259D03*
X0272578Y0525651D03*
X027397Y0527043D03*
X0275362Y0528435D03*
X0276754Y0529827D03*
X0278146Y0531219D03*
X0279538Y0532611D03*
X028093Y0534003D03*
X0282322Y0535395D03*
X0283714Y0536787D03*
X0285106Y0538178D03*
X0286498Y0539571D03*
X028789Y0540962D03*
X0289282Y0542354D03*
G54D22*
X0252591Y0430117D03*
X0247591D03*
X0242591D03*
X0237591D03*
X0252591Y0411613D03*
X0247591D03*
X0242591D03*
X0237591D03*
X0322491Y0366817D03*
X0317491D03*
X0312491D03*
X0307491D03*
X0322491Y0348313D03*
X0317491D03*
X0312491D03*
G54D23*
X0174626Y0338265D03*
X0336889Y0487165D03*
X0600984Y0395295D03*
G54D24*
X0174626Y0333265D03*
Y0328265D03*
Y0323265D03*
X019313Y0338265D03*
Y0333265D03*
Y0328265D03*
Y0323265D03*
X0336889Y0482165D03*
Y0477165D03*
Y0472165D03*
X0355393Y0487165D03*
Y0482165D03*
Y0477165D03*
Y0472165D03*
X0327543Y0322965D03*
Y0327965D03*
Y0332965D03*
Y0337965D03*
X0309039Y0322965D03*
Y0327965D03*
Y0332965D03*
Y0337965D03*
X0619488Y0380295D03*
Y0385295D03*
Y0390295D03*
Y0395295D03*
X0600984Y0380295D03*
Y0385295D03*
Y0390295D03*
X0458271Y0403047D03*
Y0408047D03*
Y0413047D03*
Y0418047D03*
X0439767Y0403047D03*
Y0408047D03*
Y0413047D03*
Y0418047D03*
G54D25*
X0183214Y0366645D03*
X0185773D03*
X0188332D03*
X0190891D03*
X019345D03*
X0196009D03*
X0198568D03*
X0183214Y0389086D03*
X0185773D03*
X0188332D03*
X0190891D03*
X019345D03*
X0196009D03*
X0198568D03*
G54D26*
X0189857Y0344803D03*
X0186117Y0353071D03*
X0193597D03*
X023909Y0320993D03*
X024283Y0312725D03*
X023535D03*
X0238991Y0342332D03*
X0235251Y0350599D03*
X0242731D03*
X0222991Y0342332D03*
X0219251Y0350599D03*
X0226731D03*
X0165591Y0565332D03*
X0161851Y0573599D03*
X0169332D03*
X0363189Y0321555D03*
X0355709D03*
X0359449Y0313287D03*
X0216893Y0539173D03*
X0220633Y0530905D03*
X0213153D03*
X0225394Y0306496D03*
X0229134Y0298228D03*
X0221654D03*
X023937Y0306496D03*
X024311Y0298228D03*
X023563D03*
X017223Y049142D03*
X017971D03*
X017597Y0499687D03*
X0611811Y0431989D03*
X0604331D03*
X0608071Y0423721D03*
X0466272Y0326598D03*
X0462532Y0334866D03*
X0470012D03*
X0608071Y0456496D03*
X0604331Y0464764D03*
X0611811D03*
G54D27*
X0222244Y0316757D03*
X0213976Y0313017D03*
Y0320498D03*
X0253525Y0375765D03*
X0245257Y0372025D03*
Y0379505D03*
X0253525Y0389565D03*
X0245257Y0385825D03*
Y0393305D03*
X0246986Y0464505D03*
Y0457025D03*
X0255254Y0460765D03*
X0371225Y0399765D03*
X0362958Y0396025D03*
Y0403506D03*
Y0304628D03*
X0371225Y0308368D03*
Y0300887D03*
X0256958Y0368565D03*
X0265225Y0372305D03*
Y0364825D03*
X0158984Y0481008D03*
X0167252Y0484748D03*
Y0477268D03*
X0589567Y0441536D03*
Y0434056D03*
X0597835Y0437796D03*
X0542795Y0454623D03*
X0534527Y0450883D03*
Y0458363D03*
X0589567Y0474312D03*
Y0466831D03*
X0597835Y0470571D03*
X0582873Y0410532D03*
X0591141Y0414272D03*
Y0406791D03*
G54D28*
X0261964Y0321191D03*
X0271019D03*
G54D29*
X0266491Y0336939D03*
G54D30*
X0308971Y028775D03*
Y0290309D03*
Y0292868D03*
Y0295427D03*
X0331412Y0308222D03*
Y0310781D03*
X0308971D03*
Y0308222D03*
Y0305663D03*
Y0303104D03*
Y0300545D03*
Y0297986D03*
X0331412Y0305663D03*
Y0303104D03*
Y0300545D03*
Y0297986D03*
Y0295427D03*
Y0292868D03*
Y0290309D03*
Y028775D03*
G54D31*
X0302491Y0512925D03*
X0297491D03*
X0292491D03*
X0287491D03*
X0282491D03*
X0277491D03*
X0272491D03*
X0267491D03*
X0302491Y0494028D03*
X0297491D03*
X0292491D03*
X0287491D03*
X0282491D03*
X0277491D03*
X0272491D03*
X0267491D03*
X0523484Y0312992D03*
X0528484D03*
X0533484D03*
X0538484D03*
X0543484D03*
X0548484D03*
X0553484D03*
X0523484Y033189D03*
X0528484D03*
X0533484D03*
X0538484D03*
X0543484D03*
X0548484D03*
X0553484D03*
G54D32*
X0307491Y0348313D03*
G54D33*
X0371027Y0560703D03*
Y0574679D03*
X060748Y0401476D03*
Y0415453D03*
X0590354Y0401083D03*
Y0387106D03*
X0598917Y0401476D03*
Y0415453D03*
G54D34*
X0341036Y0545821D03*
X0335747Y055111D03*
G54D35*
X0280791Y0477989D03*
Y0484761D03*
X0288591Y0477989D03*
Y0484761D03*
X0272991Y0477989D03*
Y0484761D03*
X0265218Y0477955D03*
Y0484727D03*
X0296351Y0477989D03*
Y0484761D03*
X0304091Y0477989D03*
Y0484761D03*
X0311891Y0477989D03*
Y0484761D03*
X04169Y0430806D03*
Y0424035D03*
G54D36*
X0239765Y0284365D03*
X0211418D03*
X0182973Y0515551D03*
X0211319D03*
G54D37*
X0342973Y0465499D03*
Y046294D03*
Y0460381D03*
Y0457822D03*
X0359509Y0465499D03*
Y046294D03*
Y0460381D03*
Y0457822D03*
G54D38*
X0158091Y0426261D03*
X0163091D03*
X0168091D03*
X0173091D03*
X0178091D03*
X0183091D03*
X0188091D03*
X0193091D03*
X0158091Y0463269D03*
X0163091D03*
X0168091D03*
X0173091D03*
X0178091D03*
X0183091D03*
X0188091D03*
X0193091D03*
G54D39*
X0160991Y0379165D03*
Y0403165D03*
G54D40*
X0294707Y0504765D03*
Y0502165D03*
X0289506D03*
Y0504765D03*
X0273901D03*
Y0502165D03*
X0279102D03*
Y0504765D03*
X0284304D03*
Y0502165D03*
X03Y0502243D03*
Y0504843D03*
G54D41*
X054439Y0482283D03*
X0530413D03*
X062687Y044754D03*
X0612894D03*
X053045Y0473735D03*
X0544426D03*
X0520472Y0437402D03*
X0506496D03*
X0604725Y047254D03*
X0618701D03*
X0604724Y0439764D03*
X0618701D03*
X0626083Y0480119D03*
X0612106D03*
G54D42*
X0653543Y0351279D03*
Y0379921D03*
X0673228Y0409055D03*
Y0438976D03*
G54D43*
X0628937Y0342303D03*
Y0360256D03*
Y0370945D03*
Y0388898D03*
X0648622Y0418032D03*
Y0400079D03*
Y0447953D03*
Y043D03*
G54D44*
X0584202Y0367421D03*
Y0343209D03*
G54D45*
X0604862Y0367421D03*
Y0343209D03*
G54D46*
X0658465Y0318898D03*
X0642323D03*
X0501883Y0448269D03*
X0518024D03*
X0541535Y0430709D03*
X0557677D03*
Y0418307D03*
X0541535D03*
G54D47*
X0481345Y039042D03*
X0493156D03*
G54D48*
X048725Y0389094D03*
G54D49*
X048725Y0379495D03*
G54D50*
X0453669Y0345696D03*
Y0368893D03*
G54D51*
X0533268Y046496D03*
X0544685D03*
X0648917Y0461122D03*
X0660335D03*
X0614961Y0409646D03*
X0626378D03*
G54D52*
X0443572Y0455394D03*
X0482941D03*
G54D53*
X0513681Y0403805D03*
G54D54*
X0522736Y0427716D03*
X0513681D03*
X0504626D03*
G54D55*
X049929Y0461357D03*
Y0479073D03*
G54D117*
X0507407Y0488202D02*
X0525604D01*
X0531507Y0494105*
X0531496Y0494095D02*
Y0510991D01*
X0413386Y05D02*
X041811D01*
X0405512Y0507874D02*
X0413386Y05D01*
X0405512Y0507874D02*
Y0512303D01*
X0519685Y0507874D02*
Y0512598D01*
X0511811Y05D02*
X0519685Y0507874D01*
X0507382Y05D02*
X0511811D01*
X0507087Y0587402D02*
X0511811D01*
X0519685Y0579528*
Y0575098D02*
Y0579528D01*
X0413386Y0587402D02*
X0417815D01*
X0405512Y0579528D02*
X0413386Y0587402D01*
X0405512Y0574803D02*
Y0579528D01*
X0541338Y0610236D02*
X0555598D01*
X0531498Y0600396D02*
X0541338Y0610236D01*
X0531498Y0587436D02*
Y0600396D01*
X0692913Y0586134D02*
Y0600394D01*
X0683073Y0610234D02*
X0692913Y0600394D01*
X0670113Y0610234D02*
X0683073D01*
X0668811Y0269685D02*
X0683071D01*
X0692911Y0279525*
Y0292485*
X0403554Y0269674D02*
X0416514D01*
X0393714Y0279514D02*
X0403554Y0269674D01*
X0393714Y0279514D02*
Y0293774D01*
X038189Y0577165D02*
Y0584646D01*
X0374311D02*
X038189D01*
X037441Y0269685D02*
X038189D01*
Y0277264*
X015187Y0269685D02*
Y0277165D01*
Y0269685D02*
X0159449D01*
X015187Y0577067D02*
Y0584646D01*
X015935*
X039369Y0465376D02*
Y0478336D01*
X040353Y0488176*
X041779*
M02*