%FSTAX25Y25*%
%MOIN*%
%SFA1B1*%

%IPPOS*%
%AMD128*
4,1,8,0.021800,0.029600,-0.021800,0.029600,-0.033500,0.017900,-0.033500,-0.017900,-0.021800,-0.029600,0.021800,-0.029600,0.033500,-0.017900,0.033500,0.017900,0.021800,0.029600,0.0*
1,1,0.023360,0.021800,0.017900*
1,1,0.023360,-0.021800,0.017900*
1,1,0.023360,-0.021800,-0.017900*
1,1,0.023360,0.021800,-0.017900*
%
%AMD129*
4,1,8,-0.025700,0.010200,-0.025700,-0.010200,-0.019100,-0.016800,0.019100,-0.016800,0.025700,-0.010200,0.025700,0.010200,0.019100,0.016800,-0.019100,0.016800,-0.025700,0.010200,0.0*
1,1,0.013120,-0.019100,0.010200*
1,1,0.013120,-0.019100,-0.010200*
1,1,0.013120,0.019100,-0.010200*
1,1,0.013120,0.019100,0.010200*
%
%AMD130*
4,1,8,0.029600,-0.021800,0.029600,0.021800,0.017900,0.033500,-0.017900,0.033500,-0.029600,0.021800,-0.029600,-0.021800,-0.017900,-0.033500,0.017900,-0.033500,0.029600,-0.021800,0.0*
1,1,0.023360,0.017900,-0.021800*
1,1,0.023360,0.017900,0.021800*
1,1,0.023360,-0.017900,0.021800*
1,1,0.023360,-0.017900,-0.021800*
%
%AMD131*
4,1,8,0.005600,0.063100,-0.005600,0.063100,-0.012100,0.056600,-0.012100,-0.056600,-0.005600,-0.063100,0.005600,-0.063100,0.012100,-0.056600,0.012100,0.056600,0.005600,0.063100,0.0*
1,1,0.012840,0.005600,0.056600*
1,1,0.012840,-0.005600,0.056600*
1,1,0.012840,-0.005600,-0.056600*
1,1,0.012840,0.005600,-0.056600*
%
%AMD133*
4,1,8,0.039400,-0.040200,0.039400,0.040200,0.028300,0.051200,-0.028300,0.051200,-0.039400,0.040200,-0.039400,-0.040200,-0.028300,-0.051200,0.028300,-0.051200,0.039400,-0.040200,0.0*
1,1,0.022180,0.028300,-0.040200*
1,1,0.022180,0.028300,0.040200*
1,1,0.022180,-0.028300,0.040200*
1,1,0.022180,-0.028300,-0.040200*
%
%AMD134*
4,1,8,0.027800,0.029600,-0.027800,0.029600,-0.039400,0.017900,-0.039400,-0.017900,-0.027800,-0.029600,0.027800,-0.029600,0.039400,-0.017900,0.039400,0.017900,0.027800,0.029600,0.0*
1,1,0.023360,0.027800,0.017900*
1,1,0.023360,-0.027800,0.017900*
1,1,0.023360,-0.027800,-0.017900*
1,1,0.023360,0.027800,-0.017900*
%
%AMD135*
4,1,8,-0.012600,-0.021100,0.012600,-0.021100,0.021700,-0.012000,0.021700,0.012000,0.012600,0.021100,-0.012600,0.021100,-0.021700,0.012000,-0.021700,-0.012000,-0.012600,-0.021100,0.0*
1,1,0.018280,-0.012600,-0.012000*
1,1,0.018280,0.012600,-0.012000*
1,1,0.018280,0.012600,0.012000*
1,1,0.018280,-0.012600,0.012000*
%
%AMD136*
4,1,8,-0.021100,0.012600,-0.021100,-0.012600,-0.012000,-0.021700,0.012000,-0.021700,0.021100,-0.012600,0.021100,0.012600,0.012000,0.021700,-0.012000,0.021700,-0.021100,0.012600,0.0*
1,1,0.018280,-0.012000,0.012600*
1,1,0.018280,-0.012000,-0.012600*
1,1,0.018280,0.012000,-0.012600*
1,1,0.018280,0.012000,0.012600*
%
%AMD137*
4,1,8,-0.023800,-0.006000,-0.006000,-0.023800,0.006900,-0.023800,0.023800,-0.006900,0.023800,0.006000,0.006000,0.023800,-0.006900,0.023800,-0.023800,0.006900,-0.023800,-0.006000,0.0*
1,1,0.018280,-0.017400,0.000400*
1,1,0.018280,0.000400,-0.017400*
1,1,0.018280,0.017400,-0.000400*
1,1,0.018280,-0.000400,0.017400*
%
%AMD138*
4,1,4,0.028400,0.013600,0.013600,0.028400,-0.028400,-0.013600,-0.013600,-0.028400,0.028400,0.013600,0.0*
1,1,0.020870,0.021000,0.021000*
1,1,0.020870,-0.021000,-0.021000*
%
%AMD139*
4,1,4,0.013600,-0.028400,0.028400,-0.013600,-0.013600,0.028400,-0.028400,0.013600,0.013600,-0.028400,0.0*
1,1,0.020870,0.021000,-0.021000*
1,1,0.020870,-0.021000,0.021000*
%
%AMD141*
4,1,8,-0.041400,0.008300,-0.041400,-0.008300,-0.033900,-0.015800,0.033900,-0.015800,0.041400,-0.008300,0.041400,0.008300,0.033900,0.015800,-0.033900,0.015800,-0.041400,0.008300,0.0*
1,1,0.015080,-0.033900,0.008300*
1,1,0.015080,-0.033900,-0.008300*
1,1,0.015080,0.033900,-0.008300*
1,1,0.015080,0.033900,0.008300*
%
%AMD144*
4,1,8,0.008300,0.029600,-0.008300,0.029600,-0.015800,0.022000,-0.015800,-0.022000,-0.008300,-0.029600,0.008300,-0.029600,0.015800,-0.022000,0.015800,0.022000,0.008300,0.029600,0.0*
1,1,0.015080,0.008300,0.022000*
1,1,0.015080,-0.008300,0.022000*
1,1,0.015080,-0.008300,-0.022000*
1,1,0.015080,0.008300,-0.022000*
%
%AMD145*
4,1,8,-0.029600,0.008300,-0.029600,-0.008300,-0.022000,-0.015800,0.022000,-0.015800,0.029600,-0.008300,0.029600,0.008300,0.022000,0.015800,-0.022000,0.015800,-0.029600,0.008300,0.0*
1,1,0.015080,-0.022000,0.008300*
1,1,0.015080,-0.022000,-0.008300*
1,1,0.015080,0.022000,-0.008300*
1,1,0.015080,0.022000,0.008300*
%
%AMD146*
4,1,8,-0.020500,-0.043400,0.020500,-0.043400,0.029600,-0.034200,0.029600,0.034200,0.020500,0.043400,-0.020500,0.043400,-0.029600,0.034200,-0.029600,-0.034200,-0.020500,-0.043400,0.0*
1,1,0.018240,-0.020500,-0.034200*
1,1,0.018240,0.020500,-0.034200*
1,1,0.018240,0.020500,0.034200*
1,1,0.018240,-0.020500,0.034200*
%
%AMD147*
4,1,8,-0.031500,-0.043400,0.031500,-0.043400,0.043400,-0.031500,0.043400,0.031500,0.031500,0.043400,-0.031500,0.043400,-0.043400,0.031500,-0.043400,-0.031500,-0.031500,-0.043400,0.0*
1,1,0.023740,-0.031500,-0.031500*
1,1,0.023740,0.031500,-0.031500*
1,1,0.023740,0.031500,0.031500*
1,1,0.023740,-0.031500,0.031500*
%
%AMD150*
4,1,8,-0.008300,-0.041400,0.008300,-0.041400,0.015800,-0.033900,0.015800,0.033900,0.008300,0.041400,-0.008300,0.041400,-0.015800,0.033900,-0.015800,-0.033900,-0.008300,-0.041400,0.0*
1,1,0.015080,-0.008300,-0.033900*
1,1,0.015080,0.008300,-0.033900*
1,1,0.015080,0.008300,0.033900*
1,1,0.015080,-0.008300,0.033900*
%
%AMD151*
4,1,8,0.026100,0.028600,-0.026100,0.028600,-0.037500,0.017200,-0.037500,-0.017200,-0.026100,-0.028600,0.026100,-0.028600,0.037500,-0.017200,0.037500,0.017200,0.026100,0.028600,0.0*
1,1,0.022760,0.026100,0.017200*
1,1,0.022760,-0.026100,0.017200*
1,1,0.022760,-0.026100,-0.017200*
1,1,0.022760,0.026100,-0.017200*
%
%AMD152*
4,1,8,0.005500,-0.036300,0.036300,-0.005500,0.036300,0.011000,0.011000,0.036300,-0.005500,0.036300,-0.036300,0.005500,-0.036300,-0.011000,-0.011000,-0.036300,0.005500,-0.036300,0.0*
1,1,0.023360,-0.002800,-0.028100*
1,1,0.023360,0.028100,0.002800*
1,1,0.023360,0.002800,0.028100*
1,1,0.023360,-0.028100,-0.002800*
%
%AMD153*
4,1,8,0.020800,0.033100,-0.020800,0.033100,-0.033500,0.020400,-0.033500,-0.020400,-0.020800,-0.033100,0.020800,-0.033100,0.033500,-0.020400,0.033500,0.020400,0.020800,0.033100,0.0*
1,1,0.025480,0.020800,0.020400*
1,1,0.025480,-0.020800,0.020400*
1,1,0.025480,-0.020800,-0.020400*
1,1,0.025480,0.020800,-0.020400*
%
%AMD154*
4,1,8,-0.048400,-0.057100,0.048400,-0.057100,0.063100,-0.042500,0.063100,0.042500,0.048400,0.057100,-0.048400,0.057100,-0.063100,0.042500,-0.063100,-0.042500,-0.048400,-0.057100,0.0*
1,1,0.029260,-0.048400,-0.042500*
1,1,0.029260,0.048400,-0.042500*
1,1,0.029260,0.048400,0.042500*
1,1,0.029260,-0.048400,0.042500*
%
%AMD157*
4,1,8,0.056300,0.039400,-0.056300,0.039400,-0.070900,0.024800,-0.070900,-0.024800,-0.056300,-0.039400,0.056300,-0.039400,0.070900,-0.024800,0.070900,0.024800,0.056300,0.039400,0.0*
1,1,0.029260,0.056300,0.024800*
1,1,0.029260,-0.056300,0.024800*
1,1,0.029260,-0.056300,-0.024800*
1,1,0.029260,0.056300,-0.024800*
%
%AMD158*
4,1,8,0.016100,0.013000,-0.016100,0.013000,-0.021000,0.008100,-0.021000,-0.008100,-0.016100,-0.013000,0.016100,-0.013000,0.021000,-0.008100,0.021000,0.008100,0.016100,0.013000,0.0*
1,1,0.009800,0.016100,0.008100*
1,1,0.009800,-0.016100,0.008100*
1,1,0.009800,-0.016100,-0.008100*
1,1,0.009800,0.016100,-0.008100*
%
%AMD159*
4,1,8,-0.028600,0.026100,-0.028600,-0.026100,-0.017200,-0.037500,0.017200,-0.037500,0.028600,-0.026100,0.028600,0.026100,0.017200,0.037500,-0.017200,0.037500,-0.028600,0.026100,0.0*
1,1,0.022760,-0.017200,0.026100*
1,1,0.022760,-0.017200,-0.026100*
1,1,0.022760,0.017200,-0.026100*
1,1,0.022760,0.017200,0.026100*
%
%AMD160*
4,1,8,-0.149700,0.102900,-0.149700,-0.102900,-0.140300,-0.112300,0.140300,-0.112300,0.149700,-0.102900,0.149700,0.102900,0.140300,0.112300,-0.140300,0.112300,-0.149700,0.102900,0.0*
1,1,0.018820,-0.140300,0.102900*
1,1,0.018820,-0.140300,-0.102900*
1,1,0.018820,0.140300,-0.102900*
1,1,0.018820,0.140300,0.102900*
%
%AMD161*
4,1,8,-0.041400,0.015000,-0.041400,-0.015000,-0.033700,-0.022700,0.033700,-0.022700,0.041400,-0.015000,0.041400,0.015000,0.033700,0.022700,-0.033700,0.022700,-0.041400,0.015000,0.0*
1,1,0.015480,-0.033700,0.015000*
1,1,0.015480,-0.033700,-0.015000*
1,1,0.015480,0.033700,-0.015000*
1,1,0.015480,0.033700,0.015000*
%
%AMD162*
4,1,8,-0.029400,-0.088100,0.029400,-0.088100,0.036700,-0.080800,0.036700,0.080800,0.029400,0.088100,-0.029400,0.088100,-0.036700,0.080800,-0.036700,-0.080800,-0.029400,-0.088100,0.0*
1,1,0.014540,-0.029400,-0.080800*
1,1,0.014540,0.029400,-0.080800*
1,1,0.014540,0.029400,0.080800*
1,1,0.014540,-0.029400,0.080800*
%
%AMD163*
4,1,8,-0.142000,-0.088100,0.142000,-0.088100,0.154400,-0.075600,0.154400,0.075600,0.142000,0.088100,-0.142000,0.088100,-0.154400,0.075600,-0.154400,-0.075600,-0.142000,-0.088100,0.0*
1,1,0.024820,-0.142000,-0.075600*
1,1,0.024820,0.142000,-0.075600*
1,1,0.024820,0.142000,0.075600*
1,1,0.024820,-0.142000,0.075600*
%
%AMD164*
4,1,8,0.040200,0.039400,-0.040200,0.039400,-0.051200,0.028300,-0.051200,-0.028300,-0.040200,-0.039400,0.040200,-0.039400,0.051200,-0.028300,0.051200,0.028300,0.040200,0.039400,0.0*
1,1,0.022180,0.040200,0.028300*
1,1,0.022180,-0.040200,0.028300*
1,1,0.022180,-0.040200,-0.028300*
1,1,0.022180,0.040200,-0.028300*
%
%AMD165*
4,1,8,-0.006900,-0.030600,0.006900,-0.030600,0.017800,-0.019700,0.017800,0.019700,0.006900,0.030600,-0.006900,0.030600,-0.017800,0.019700,-0.017800,-0.019700,-0.006900,-0.030600,0.0*
1,1,0.021780,-0.006900,-0.019700*
1,1,0.021780,0.006900,-0.019700*
1,1,0.021780,0.006900,0.019700*
1,1,0.021780,-0.006900,0.019700*
%
%AMD166*
4,1,8,-0.006900,-0.044400,0.006900,-0.044400,0.017800,-0.033500,0.017800,0.033500,0.006900,0.044400,-0.006900,0.044400,-0.017800,0.033500,-0.017800,-0.033500,-0.006900,-0.044400,0.0*
1,1,0.021780,-0.006900,-0.033500*
1,1,0.021780,0.006900,-0.033500*
1,1,0.021780,0.006900,0.033500*
1,1,0.021780,-0.006900,0.033500*
%
%AMD167*
4,1,8,-0.018700,-0.069000,0.018700,-0.069000,0.041400,-0.046300,0.041400,0.046300,0.018700,0.069000,-0.018700,0.069000,-0.041400,0.046300,-0.041400,-0.046300,-0.018700,-0.069000,0.0*
1,1,0.045400,-0.018700,-0.046300*
1,1,0.045400,0.018700,-0.046300*
1,1,0.045400,0.018700,0.046300*
1,1,0.045400,-0.018700,0.046300*
%
%AMD168*
4,1,8,0.052000,0.064000,-0.052000,0.064000,-0.068000,0.048000,-0.068000,-0.048000,-0.052000,-0.064000,0.052000,-0.064000,0.068000,-0.048000,0.068000,0.048000,0.052000,0.064000,0.0*
1,1,0.032000,0.052000,0.048000*
1,1,0.032000,-0.052000,0.048000*
1,1,0.032000,-0.052000,-0.048000*
1,1,0.032000,0.052000,-0.048000*
%
%AMD169*
4,1,8,0.029600,-0.027800,0.029600,0.027800,0.017900,0.039400,-0.017900,0.039400,-0.029600,0.027800,-0.029600,-0.027800,-0.017900,-0.039400,0.017900,-0.039400,0.029600,-0.027800,0.0*
1,1,0.023360,0.017900,-0.027800*
1,1,0.023360,0.017900,0.027800*
1,1,0.023360,-0.017900,0.027800*
1,1,0.023360,-0.017900,-0.027800*
%
%AMD170*
4,1,8,-0.071500,0.103500,-0.071500,-0.103500,-0.060700,-0.114200,0.060700,-0.114200,0.071500,-0.103500,0.071500,0.103500,0.060700,0.114200,-0.060700,0.114200,-0.071500,0.103500,0.0*
1,1,0.021500,-0.060700,0.103500*
1,1,0.021500,-0.060700,-0.103500*
1,1,0.021500,0.060700,-0.103500*
1,1,0.021500,0.060700,0.103500*
%
%AMD171*
4,1,8,0.104700,0.151600,-0.104700,0.151600,-0.114200,0.142100,-0.114200,-0.142100,-0.104700,-0.151600,0.104700,-0.151600,0.114200,-0.142100,0.114200,0.142100,0.104700,0.151600,0.0*
1,1,0.019020,0.104700,0.142100*
1,1,0.019020,-0.104700,0.142100*
1,1,0.019020,-0.104700,-0.142100*
1,1,0.019020,0.104700,-0.142100*
%
%AMD172*
4,1,8,0.013800,0.049000,-0.013800,0.049000,-0.023700,0.039100,-0.023700,-0.039100,-0.013800,-0.049000,0.013800,-0.049000,0.023700,-0.039100,0.023700,0.039100,0.013800,0.049000,0.0*
1,1,0.019820,0.013800,0.039100*
1,1,0.019820,-0.013800,0.039100*
1,1,0.019820,-0.013800,-0.039100*
1,1,0.019820,0.013800,-0.039100*
%
%AMD173*
4,1,8,0.049300,-0.036200,0.049300,0.036200,0.036200,0.049300,-0.036200,0.049300,-0.049300,0.036200,-0.049300,-0.036200,-0.036200,-0.049300,0.036200,-0.049300,0.049300,-0.036200,0.0*
1,1,0.026120,0.036200,-0.036200*
1,1,0.026120,0.036200,0.036200*
1,1,0.026120,-0.036200,0.036200*
1,1,0.026120,-0.036200,-0.036200*
%
%AMD175*
4,1,8,-0.033500,0.020700,-0.033500,-0.020700,-0.020700,-0.033500,0.020700,-0.033500,0.033500,-0.020700,0.033500,0.020700,0.020700,0.033500,-0.020700,0.033500,-0.033500,0.020700,0.0*
1,1,0.025720,-0.020700,0.020700*
1,1,0.025720,-0.020700,-0.020700*
1,1,0.025720,0.020700,-0.020700*
1,1,0.025720,0.020700,0.020700*
%
%AMD180*
4,1,8,0.045400,0.010300,0.010300,0.045400,-0.010300,0.045400,-0.045400,0.010300,-0.045400,-0.010300,-0.010300,-0.045400,0.010300,-0.045400,0.045400,-0.010300,0.045400,0.010300,0.0*
1,1,0.029260,0.035100,0.000000*
1,1,0.029260,0.000000,0.035100*
1,1,0.029260,-0.035100,0.000000*
1,1,0.029260,0.000000,-0.035100*
%
%AMD188*
4,1,8,0.025500,0.040400,-0.025500,0.040400,-0.040400,0.025500,-0.040400,-0.025500,-0.025500,-0.040400,0.025500,-0.040400,0.040400,-0.025500,0.040400,0.025500,0.025500,0.040400,0.0*
1,1,0.029860,0.025500,0.025500*
1,1,0.029860,-0.025500,0.025500*
1,1,0.029860,-0.025500,-0.025500*
1,1,0.029860,0.025500,-0.025500*
%
%AMD189*
4,1,8,-0.017500,-0.039000,0.017500,-0.039000,0.039000,-0.017500,0.039000,0.017500,0.017500,0.039000,-0.017500,0.039000,-0.039000,0.017500,-0.039000,-0.017500,-0.017500,-0.039000,0.0*
1,1,0.043000,-0.017500,-0.017500*
1,1,0.043000,0.017500,-0.017500*
1,1,0.043000,0.017500,0.017500*
1,1,0.043000,-0.017500,0.017500*
%
%AMD191*
4,1,8,0.059100,-0.038600,0.059100,0.038600,0.038600,0.059100,-0.038600,0.059100,-0.059100,0.038600,-0.059100,-0.038600,-0.038600,-0.059100,0.038600,-0.059100,0.059100,-0.038600,0.0*
1,1,0.041080,0.038600,-0.038600*
1,1,0.041080,0.038600,0.038600*
1,1,0.041080,-0.038600,0.038600*
1,1,0.041080,-0.038600,-0.038600*
%
%AMD195*
4,1,8,0.046600,0.010500,0.010500,0.046600,-0.010500,0.046600,-0.046600,0.010500,-0.046600,-0.010500,-0.010500,-0.046600,0.010500,-0.046600,0.046600,-0.010500,0.046600,0.010500,0.0*
1,1,0.029860,0.036100,0.000000*
1,1,0.029860,0.000000,0.036100*
1,1,0.029860,-0.036100,0.000000*
1,1,0.029860,0.000000,-0.036100*
%
%AMD196*
4,1,8,-0.072900,0.055100,-0.072900,-0.055100,-0.055100,-0.072900,0.055100,-0.072900,0.072900,-0.055100,0.072900,0.055100,0.055100,0.072900,-0.055100,0.072900,-0.072900,0.055100,0.0*
1,1,0.035560,-0.055100,0.055100*
1,1,0.035560,-0.055100,-0.055100*
1,1,0.035560,0.055100,-0.055100*
1,1,0.035560,0.055100,0.055100*
%
%ADD122R,0.043000X0.089000*%
%ADD123R,0.045000X0.088000*%
%ADD124R,0.799210X0.115160*%
%ADD125R,0.066000X0.028000*%
%ADD126R,0.042000X0.022000*%
%ADD127R,0.046000X0.104000*%
G04~CAMADD=128~8~0.0~0.0~670.6~591.8~116.8~0.0~15~0.0~0.0~0.0~0.0~0~0.0~0.0~0.0~0.0~0~0.0~0.0~0.0~0.0~670.6~591.8*
%ADD128D128*%
G04~CAMADD=129~8~0.0~0.0~335.9~513.1~65.6~0.0~15~0.0~0.0~0.0~0.0~0~0.0~0.0~0.0~0.0~0~0.0~0.0~0.0~90.0~514.0~336.0*
%ADD129D129*%
G04~CAMADD=130~8~0.0~0.0~670.6~591.8~116.8~0.0~15~0.0~0.0~0.0~0.0~0~0.0~0.0~0.0~0.0~0~0.0~0.0~0.0~270.0~592.0~670.0*
%ADD130D130*%
G04~CAMADD=131~8~0.0~0.0~241.4~1261.1~64.2~0.0~15~0.0~0.0~0.0~0.0~0~0.0~0.0~0.0~0.0~0~0.0~0.0~0.0~0.0~241.4~1261.1*
%ADD131D131*%
%ADD132R,0.043430X0.106420*%
G04~CAMADD=133~8~0.0~0.0~1024.9~788.7~110.9~0.0~15~0.0~0.0~0.0~0.0~0~0.0~0.0~0.0~0.0~0~0.0~0.0~0.0~270.0~788.0~1024.0*
%ADD133D133*%
G04~CAMADD=134~8~0.0~0.0~788.7~591.8~116.8~0.0~15~0.0~0.0~0.0~0.0~0~0.0~0.0~0.0~0.0~0~0.0~0.0~0.0~0.0~788.7~591.8*
%ADD134D134*%
G04~CAMADD=135~8~0.0~0.0~434.3~422.5~91.4~0.0~15~0.0~0.0~0.0~0.0~0~0.0~0.0~0.0~0.0~0~0.0~0.0~0.0~180.0~434.0~422.0*
%ADD135D135*%
G04~CAMADD=136~8~0.0~0.0~434.3~422.5~91.4~0.0~15~0.0~0.0~0.0~0.0~0~0.0~0.0~0.0~0.0~0~0.0~0.0~0.0~90.0~423.0~434.0*
%ADD136D136*%
G04~CAMADD=137~8~0.0~0.0~434.3~422.5~91.4~0.0~15~0.0~0.0~0.0~0.0~0~0.0~0.0~0.0~0.0~0~0.0~0.0~0.0~135.0~528.0~529.0*
%ADD137D137*%
G04~CAMADD=138~3~0.0~0.0~208.7~803.2~0.0~0.0~0~0.0~0.0~0.0~0.0~0~0.0~0.0~0.0~0.0~0~0.0~0.0~0.0~315.0~628.0~628.0*
%ADD138D138*%
G04~CAMADD=139~3~0.0~0.0~208.7~803.2~0.0~0.0~0~0.0~0.0~0.0~0.0~0~0.0~0.0~0.0~0.0~0~0.0~0.0~0.0~225.0~628.0~628.0*
%ADD139D139*%
%ADD140O,0.031620X0.082800*%
G04~CAMADD=141~8~0.0~0.0~316.2~828.0~75.4~0.0~15~0.0~0.0~0.0~0.0~0~0.0~0.0~0.0~0.0~0~0.0~0.0~0.0~90.0~828.0~316.0*
%ADD141D141*%
%ADD142O,0.082800X0.031620*%
%ADD143O,0.025780X0.078930*%
G04~CAMADD=144~8~0.0~0.0~316.2~591.8~75.4~0.0~15~0.0~0.0~0.0~0.0~0~0.0~0.0~0.0~0.0~0~0.0~0.0~0.0~0.0~316.2~591.8*
%ADD144D144*%
G04~CAMADD=145~8~0.0~0.0~316.2~591.8~75.4~0.0~15~0.0~0.0~0.0~0.0~0~0.0~0.0~0.0~0.0~0~0.0~0.0~0.0~90.0~592.0~316.0*
%ADD145D145*%
G04~CAMADD=146~8~0.0~0.0~591.8~867.4~91.2~0.0~15~0.0~0.0~0.0~0.0~0~0.0~0.0~0.0~0.0~0~0.0~0.0~0.0~180.0~592.0~868.0*
%ADD146D146*%
G04~CAMADD=147~8~0.0~0.0~867.4~867.4~118.7~0.0~15~0.0~0.0~0.0~0.0~0~0.0~0.0~0.0~0.0~0~0.0~0.0~0.0~180.0~868.0~868.0*
%ADD147D147*%
%ADD148O,0.078930X0.025780*%
%ADD149O,0.031620X0.094610*%
G04~CAMADD=150~8~0.0~0.0~316.2~828.0~75.4~0.0~15~0.0~0.0~0.0~0.0~0~0.0~0.0~0.0~0.0~0~0.0~0.0~0.0~180.0~316.0~828.0*
%ADD150D150*%
G04~CAMADD=151~8~0.0~0.0~749.3~572.1~113.8~0.0~15~0.0~0.0~0.0~0.0~0~0.0~0.0~0.0~0.0~0~0.0~0.0~0.0~0.0~749.3~572.1*
%ADD151D151*%
G04~CAMADD=152~8~0.0~0.0~670.6~591.8~116.8~0.0~15~0.0~0.0~0.0~0.0~0~0.0~0.0~0.0~0.0~0~0.0~0.0~0.0~225.0~797.0~795.0*
%ADD152D152*%
G04~CAMADD=153~8~0.0~0.0~670.6~662.7~127.4~0.0~15~0.0~0.0~0.0~0.0~0~0.0~0.0~0.0~0.0~0~0.0~0.0~0.0~0.0~670.6~662.7*
%ADD153D153*%
G04~CAMADD=154~8~0.0~0.0~1261.1~1143.0~146.3~0.0~15~0.0~0.0~0.0~0.0~0~0.0~0.0~0.0~0.0~0~0.0~0.0~0.0~180.0~1262.0~1143.0*
%ADD154D154*%
%ADD155O,0.077170X0.026240*%
%ADD156O,0.031620X0.086740*%
G04~CAMADD=157~8~0.0~0.0~1418.6~788.7~146.3~0.0~15~0.0~0.0~0.0~0.0~0~0.0~0.0~0.0~0.0~0~0.0~0.0~0.0~0.0~1418.6~788.7*
%ADD157D157*%
G04~CAMADD=158~8~0.0~0.0~420.0~260.0~49.0~0.0~15~0.0~0.0~0.0~0.0~0~0.0~0.0~0.0~0.0~0~0.0~0.0~0.0~0.0~420.0~260.0*
%ADD158D158*%
G04~CAMADD=159~8~0.0~0.0~749.3~572.1~113.8~0.0~15~0.0~0.0~0.0~0.0~0~0.0~0.0~0.0~0.0~0~0.0~0.0~0.0~90.0~572.0~750.0*
%ADD159D159*%
G04~CAMADD=160~8~0.0~0.0~2245.3~2993.4~94.1~0.0~15~0.0~0.0~0.0~0.0~0~0.0~0.0~0.0~0.0~0~0.0~0.0~0.0~90.0~2994.0~2246.0*
%ADD160D160*%
G04~CAMADD=161~8~0.0~0.0~454.0~828.0~77.4~0.0~15~0.0~0.0~0.0~0.0~0~0.0~0.0~0.0~0.0~0~0.0~0.0~0.0~90.0~828.0~454.0*
%ADD161D161*%
G04~CAMADD=162~8~0.0~0.0~733.5~1761.1~72.7~0.0~15~0.0~0.0~0.0~0.0~0~0.0~0.0~0.0~0.0~0~0.0~0.0~0.0~180.0~734.0~1762.0*
%ADD162D162*%
G04~CAMADD=163~8~0.0~0.0~3087.9~1761.1~124.1~0.0~15~0.0~0.0~0.0~0.0~0~0.0~0.0~0.0~0.0~0~0.0~0.0~0.0~180.0~3088.0~1761.0*
%ADD163D163*%
G04~CAMADD=164~8~0.0~0.0~1024.9~788.7~110.9~0.0~15~0.0~0.0~0.0~0.0~0~0.0~0.0~0.0~0.0~0~0.0~0.0~0.0~0.0~1024.9~788.7*
%ADD164D164*%
G04~CAMADD=165~8~0.0~0.0~355.6~611.5~108.9~0.0~15~0.0~0.0~0.0~0.0~0~0.0~0.0~0.0~0.0~0~0.0~0.0~0.0~180.0~356.0~612.0*
%ADD165D165*%
G04~CAMADD=166~8~0.0~0.0~355.6~888.7~108.9~0.0~15~0.0~0.0~0.0~0.0~0~0.0~0.0~0.0~0.0~0~0.0~0.0~0.0~180.0~356.0~889.0*
%ADD166D166*%
G04~CAMADD=167~8~0.0~0.0~828.0~1379.2~227.0~0.0~15~0.0~0.0~0.0~0.0~0~0.0~0.0~0.0~0.0~0~0.0~0.0~0.0~180.0~829.0~1380.0*
%ADD167D167*%
G04~CAMADD=168~8~0.0~0.0~1359.5~1280.0~160.0~0.0~15~0.0~0.0~0.0~0.0~0~0.0~0.0~0.0~0.0~0~0.0~0.0~0.0~0.0~1359.5~1280.0*
%ADD168D168*%
G04~CAMADD=169~8~0.0~0.0~788.7~591.8~116.8~0.0~15~0.0~0.0~0.0~0.0~0~0.0~0.0~0.0~0.0~0~0.0~0.0~0.0~270.0~592.0~788.0*
%ADD169D169*%
G04~CAMADD=170~8~0.0~0.0~2284.7~1430.0~107.5~0.0~15~0.0~0.0~0.0~0.0~0~0.0~0.0~0.0~0.0~0~0.0~0.0~0.0~90.0~1430.0~2284.0*
%ADD170D170*%
G04~CAMADD=171~8~0.0~0.0~2284.7~3032.8~95.1~0.0~15~0.0~0.0~0.0~0.0~0~0.0~0.0~0.0~0.0~0~0.0~0.0~0.0~0.0~2284.7~3032.8*
%ADD171D171*%
G04~CAMADD=172~8~0.0~0.0~473.7~980.0~99.1~0.0~15~0.0~0.0~0.0~0.0~0~0.0~0.0~0.0~0.0~0~0.0~0.0~0.0~0.0~473.7~980.0*
%ADD172D172*%
G04~CAMADD=173~8~0.0~0.0~985.5~985.5~130.6~0.0~15~0.0~0.0~0.0~0.0~0~0.0~0.0~0.0~0.0~0~0.0~0.0~0.0~270.0~986.0~986.0*
%ADD173D173*%
%ADD174C,0.067060*%
G04~CAMADD=175~8~0.0~0.0~670.6~670.6~128.6~0.0~15~0.0~0.0~0.0~0.0~0~0.0~0.0~0.0~0.0~0~0.0~0.0~0.0~90.0~670.0~670.0*
%ADD175D175*%
%ADD176O,0.059180X0.051310*%
%ADD177O,0.206850X0.114330*%
%ADD178C,0.263900*%
%ADD179C,0.244220*%
G04~CAMADD=180~8~0.0~0.0~788.7~788.7~146.3~0.0~15~0.0~0.0~0.0~0.0~0~0.0~0.0~0.0~0.0~0~0.0~0.0~0.0~315.0~992.0~991.0*
%ADD180D180*%
%ADD181C,0.078870*%
%ADD182R,0.067060X0.067060*%
%ADD183O,0.126110X0.086740*%
%ADD184R,0.067060X0.067060*%
%ADD185C,0.086740*%
%ADD186C,0.063120*%
%ADD187C,0.080830*%
G04~CAMADD=188~8~0.0~0.0~808.3~808.3~149.3~0.0~15~0.0~0.0~0.0~0.0~0~0.0~0.0~0.0~0.0~0~0.0~0.0~0.0~0.0~808.3~808.3*
%ADD188D188*%
G04~CAMADD=189~8~0.0~0.0~780.0~780.0~215.0~0.0~15~0.0~0.0~0.0~0.0~0~0.0~0.0~0.0~0.0~0~0.0~0.0~0.0~180.0~780.0~780.0*
%ADD189D189*%
%ADD190C,0.078000*%
G04~CAMADD=191~8~0.0~0.0~1182.4~1182.4~205.4~0.0~15~0.0~0.0~0.0~0.0~0~0.0~0.0~0.0~0.0~0~0.0~0.0~0.0~270.0~1182.0~1182.0*
%ADD191D191*%
%ADD192C,0.118240*%
%ADD193C,0.067060*%
%ADD194C,0.322000*%
G04~CAMADD=195~8~0.0~0.0~808.3~808.3~149.3~0.0~15~0.0~0.0~0.0~0.0~0~0.0~0.0~0.0~0.0~0~0.0~0.0~0.0~315.0~1018.0~1017.0*
%ADD195D195*%
G04~CAMADD=196~8~0.0~0.0~1457.9~1457.9~177.8~0.0~15~0.0~0.0~0.0~0.0~0~0.0~0.0~0.0~0.0~0~0.0~0.0~0.0~90.0~1458.0~1458.0*
%ADD196D196*%
%ADD197O,0.086740X0.126110*%
%LNunisolder52_full-1*%
%LPD*%
G36*
X0466304Y0571591D02*
X0466329Y0571589D01*
X0466331*
X0466333*
X0466356Y0571584*
X0466381Y057158*
X0466382Y0571579*
X0466384*
X0466407Y0571571*
X046643Y0571563*
X0466432Y0571562*
X0466434*
X0466456Y0571551*
X0466477Y057154*
X0466479Y0571539*
X0466481Y0571538*
X0466501Y0571525*
X0466521Y0571512*
X0466523Y057151*
X0466524Y0571509*
X0466543Y0571493*
X0466561Y0571477*
X0466562Y0571476*
X0466564Y0571475*
X0467824Y0570214*
X0468938*
X046899Y0570211*
X0469041Y0570201*
X0469091Y0570184*
X0469138Y0570161*
X0469182Y0570131*
X0469221Y0570097*
X0469256Y0570057*
X0469285Y0570014*
X0469308Y0569967*
X0469325Y0569917*
X0469335Y0569866*
X0469339Y0569813*
Y0566073*
X0469335Y0566021*
X0469325Y056597*
X0469308Y056592*
X0469285Y0565873*
X0469256Y0565829*
X0469221Y056579*
X0469182Y0565755*
X0469138Y0565726*
X0469091Y0565703*
X0469041Y0565686*
X046899Y0565676*
X0468938Y0565672*
X0465985*
X0465933Y0565676*
X0465881Y0565686*
X0465832Y0565703*
X0465785Y0565726*
X0465741Y0565755*
X0465702Y056579*
X0462454Y0569038*
X0462419Y0569077*
X046239Y0569121*
X0462367Y0569168*
X046235Y0569217*
X0462339Y0569269*
X0462336Y0569321*
Y0570207*
X0462338Y0570232*
X0462339Y0570256*
Y0570258*
Y0570259*
X0462344Y0570284*
X0462349Y0570307*
Y0570309*
X046235Y0570311*
X0462358Y0570334*
X0462365Y0570357*
X0462366Y0570359*
X0462367Y0570361*
X0462378Y0570382*
X0462388Y0570404*
X0462389Y0570406*
X046239Y0570407*
X0462403Y0570428*
X0462417Y0570448*
X0462418Y057045*
X0462419Y0570451*
X0462435Y057047*
X0462451Y0570488*
X0462452Y0570489*
X0462454Y0570491*
X0462472Y0570507*
X046249Y0570523*
X0462492Y0570524*
X0462493Y0570525*
X0462513Y0570539*
X0462533Y0570552*
X0462535Y0570553*
X0462536Y0570554*
X0462558Y0570565*
X046258Y0570576*
X0462582Y0570577*
X0462584*
X0462606Y0570585*
X046263Y0570593*
X0466173Y0571578*
X0466175*
X0466177Y0571579*
X04662Y0571583*
X0466224Y0571588*
X0466226*
X0466228Y0571589*
X0466253Y057159*
X0466277Y0571592*
X0466278*
X046628*
X0466304Y0571591*
G37*
G36*
X0476518Y0571592D02*
X047652D01*
X0476544Y057159*
X0476569Y0571589*
X0476571Y0571588*
X0476573*
X0476596Y0571583*
X047662Y0571579*
X0476622Y0571578*
X0476624*
X0480167Y0570593*
X048019Y0570585*
X0480213Y0570577*
X0480215*
X0480217Y0570576*
X0480239Y0570565*
X048026Y0570554*
X0480262Y0570553*
X0480263Y0570552*
X0480284Y0570539*
X0480304Y0570525*
X0480305Y0570524*
X0480307Y0570523*
X0480325Y0570507*
X0480343Y0570491*
X0480344Y0570489*
X0480346Y0570488*
X0480362Y057047*
X0480378Y0570451*
X0480379Y057045*
X048038Y0570448*
X0480394Y0570428*
X0480407Y0570407*
X0480408Y0570406*
X0480409Y0570404*
X0480419Y0570382*
X048043Y0570361*
X0480431Y0570359*
X0480432Y0570357*
X0480439Y0570334*
X0480447Y0570311*
Y0570309*
X0480448Y0570307*
X0480452Y0570284*
X0480457Y0570259*
Y0570258*
X0480458Y0570256*
X0480459Y0570232*
X0480461Y0570207*
Y0569321*
X0480457Y0569269*
X0480447Y0569217*
X048043Y0569168*
X0480407Y0569121*
X0480378Y0569077*
X0480343Y0569038*
X0477095Y056579*
X0477056Y0565755*
X0477012Y0565726*
X0476965Y0565703*
X0476916Y0565686*
X0476864Y0565676*
X0476812Y0565672*
X0473859*
X0473807Y0565676*
X0473755Y0565686*
X0473706Y0565703*
X0473659Y0565726*
X0473615Y0565755*
X0473576Y056579*
X0473541Y0565829*
X0473512Y0565873*
X0473489Y056592*
X0473472Y056597*
X0473462Y0566021*
X0473458Y0566073*
Y0569813*
X0473462Y0569866*
X0473472Y0569917*
X0473489Y0569967*
X0473512Y0570014*
X0473541Y0570057*
X0473576Y0570097*
X0473615Y0570131*
X0473659Y0570161*
X0473706Y0570184*
X0473755Y0570201*
X0473807Y0570211*
X0473859Y0570214*
X0474972*
X0476233Y0571475*
X0476234Y0571476*
X0476236Y0571477*
X0476254Y0571493*
X0476272Y0571509*
X0476274Y057151*
X0476275Y0571512*
X0476296Y0571525*
X0476316Y0571538*
X0476318Y0571539*
X0476319Y057154*
X0476341Y0571551*
X0476363Y0571562*
X0476365*
X0476367Y0571563*
X047639Y0571571*
X0476413Y0571579*
X0476414*
X0476416Y057158*
X0476441Y0571584*
X0476464Y0571589*
X0476466*
X0476468*
X0476493Y0571591*
X0476516Y0571592*
X0476518*
G37*
G36*
X0476864Y0583793D02*
X0476916Y0583783D01*
X0476965Y0583766*
X0477012Y0583743*
X0477056Y0583714*
X0477095Y058368*
X0480343Y0580432*
X0480378Y0580392*
X0480407Y0580348*
X048043Y0580302*
X0480447Y0580252*
X0480457Y05802*
X0480461Y0580148*
Y0579262*
X0480459Y0579238*
X0480458Y0579214*
X0480457Y0579212*
Y057921*
X0480452Y0579186*
X0480448Y0579162*
X0480447Y057916*
Y0579158*
X0480439Y0579135*
X0480432Y0579112*
X0480431Y0579111*
X048043Y0579109*
X0480419Y0579087*
X0480409Y0579065*
X0480408Y0579063*
X0480407Y0579062*
X0480394Y0579042*
X048038Y0579021*
X0480379Y057902*
X0480378Y0579018*
X0480362Y0579*
X0480346Y0578981*
X0480344Y057898*
X0480343Y0578979*
X0480325Y0578963*
X0480307Y0578946*
X0480305Y0578945*
X0480304Y0578944*
X0480284Y0578931*
X0480263Y0578917*
X0480262Y0578916*
X048026Y0578915*
X0480239Y0578904*
X0480217Y0578893*
X0480215*
X0480213Y0578892*
X048019Y0578884*
X0480167Y0578876*
X0476624Y0577892*
X0476622Y0577891*
X047662*
X0476596Y0577886*
X0476573Y0577881*
X0476571*
X0476569*
X0476544Y0577879*
X047652Y0577877*
X0476518*
X0476516*
X0476493Y0577879*
X0476468Y057788*
X0476466*
X0476464Y0577881*
X0476441Y0577885*
X0476416Y057789*
X0476414*
X0476413Y0577891*
X047639Y0577899*
X0476367Y0577906*
X0476365Y0577907*
X0476363Y0577908*
X0476341Y0577919*
X0476319Y0577929*
X0476318Y057793*
X0476316Y0577931*
X0476296Y0577945*
X0476275Y0577958*
X0476274Y0577959*
X0476272Y057796*
X0476254Y0577976*
X0476236Y0577992*
X0476234Y0577993*
X0476233Y0577994*
X0474972Y0579255*
X0473859*
X0473807Y0579258*
X0473755Y0579269*
X0473706Y0579286*
X0473659Y0579309*
X0473615Y0579338*
X0473576Y0579373*
X0473541Y0579412*
X0473512Y0579456*
X0473489Y0579502*
X0473472Y0579552*
X0473462Y0579604*
X0473458Y0579656*
Y0583396*
X0473462Y0583448*
X0473472Y05835*
X0473489Y0583549*
X0473512Y0583597*
X0473541Y058364*
X0473576Y058368*
X0473615Y0583714*
X0473659Y0583743*
X0473706Y0583766*
X0473755Y0583783*
X0473807Y0583793*
X0473859Y0583797*
X0476812*
X0476864Y0583793*
G37*
G36*
X046899D02*
X0469041Y0583783D01*
X0469091Y0583766*
X0469138Y0583743*
X0469182Y0583714*
X0469221Y058368*
X0469256Y058364*
X0469285Y0583597*
X0469308Y0583549*
X0469325Y05835*
X0469335Y0583448*
X0469339Y0583396*
Y0579656*
X0469335Y0579604*
X0469325Y0579552*
X0469308Y0579502*
X0469285Y0579456*
X0469256Y0579412*
X0469221Y0579373*
X0469182Y0579338*
X0469138Y0579309*
X0469091Y0579286*
X0469041Y0579269*
X046899Y0579258*
X0468938Y0579255*
X0467824*
X0466564Y0577994*
X0466562Y0577993*
X0466561Y0577992*
X0466543Y0577976*
X0466524Y057796*
X0466523Y0577959*
X0466521Y0577958*
X0466501Y0577945*
X0466481Y0577931*
X0466479Y057793*
X0466477Y0577929*
X0466456Y0577919*
X0466434Y0577908*
X0466432Y0577907*
X046643Y0577906*
X0466407Y0577899*
X0466384Y0577891*
X0466382Y057789*
X0466381*
X0466356Y0577885*
X0466333Y0577881*
X0466331Y057788*
X0466329*
X0466304Y0577879*
X046628Y0577877*
X0466278*
X0466277*
X0466253Y0577879*
X0466228Y0577881*
X0466226*
X0466224*
X04662Y0577886*
X0466177Y0577891*
X0466175*
X0466173Y0577892*
X046263Y0578876*
X0462606Y0578884*
X0462584Y0578892*
X0462582Y0578893*
X046258*
X0462558Y0578904*
X0462536Y0578915*
X0462535Y0578916*
X0462533Y0578917*
X0462513Y0578931*
X0462493Y0578944*
X0462492Y0578945*
X046249Y0578946*
X0462472Y0578963*
X0462454Y0578979*
X0462452Y057898*
X0462451Y0578981*
X0462435Y0579*
X0462419Y0579018*
X0462418Y057902*
X0462417Y0579021*
X0462403Y0579042*
X046239Y0579062*
X0462389Y0579063*
X0462388Y0579065*
X0462378Y0579087*
X0462367Y0579109*
X0462366Y0579111*
X0462365Y0579112*
X0462358Y0579135*
X046235Y0579158*
X0462349Y057916*
Y0579162*
X0462344Y0579186*
X0462339Y057921*
Y0579212*
Y0579214*
X0462338Y0579238*
X0462336Y0579262*
Y0580148*
X0462339Y05802*
X046235Y0580252*
X0462367Y0580302*
X046239Y0580348*
X0462419Y0580392*
X0462454Y0580432*
X0465702Y058368*
X0465741Y0583714*
X0465785Y0583743*
X0465832Y0583766*
X0465881Y0583783*
X0465933Y0583793*
X0465985Y0583797*
X0468938*
X046899Y0583793*
G37*
G54D122*
X0476148Y0556588D03*
G54D123*
X0466648Y0556542D03*
G54D124*
X0462609Y0513829D03*
G54D125*
X0280791Y0481375D03*
X0288591D03*
X0272991D03*
X0265218Y0481342D03*
X0296351Y0481375D03*
X0304091D03*
X0311891D03*
X04169Y0427421D03*
G54D126*
X0294707Y0503465D03*
X0289506D03*
X0273901D03*
X0279102D03*
X0284304D03*
X03Y0503544D03*
G54D127*
X0333391Y0515565D03*
X0342791D03*
G54D128*
X0493799Y0555905D03*
Y0563386D03*
X0412598Y0532423D03*
Y0539903D03*
X0513798Y0512423D03*
Y0519903D03*
X0411698Y0511723D03*
Y0519203D03*
X0438909Y0527984D03*
Y0535464D03*
X0466608Y0535546D03*
Y0543027D03*
X0431109Y0527984D03*
Y0535464D03*
X0493598Y0577803D03*
Y0570323D03*
X0484998Y0568723D03*
Y0576203D03*
X0449909Y0545258D03*
Y0537778D03*
X0512697Y0538386D03*
Y0545866D03*
X0474409Y0535531D03*
Y0543012D03*
X0171591Y0555125D03*
Y0562605D03*
X0332874Y0426575D03*
Y0419095D03*
X0353445Y0303346D03*
Y0310827D03*
X0312291Y0557925D03*
Y0565406D03*
X024574Y0335405D03*
Y0327925D03*
X0217391Y0335405D03*
Y0327925D03*
X0237841Y0335405D03*
Y0327925D03*
X0225291Y0335405D03*
Y0327925D03*
X0334841Y0533533D03*
Y0526053D03*
X0327041Y0533433D03*
Y0525953D03*
X0362608Y055767D03*
Y056515D03*
X0163791Y0558315D03*
Y0550835D03*
X0353883Y0572193D03*
Y0579674D03*
X0336091Y0334705D03*
Y0327225D03*
X0371376Y0546338D03*
Y0553819D03*
X0370491Y0313987D03*
Y0321468D03*
X0362108Y057965D03*
Y057217D03*
X0300491Y0348406D03*
Y0340925D03*
X0292691D03*
Y0348406D03*
X0177491Y0417906D03*
Y0410425D03*
X0185291Y0417906D03*
Y0410425D03*
X020315Y0339469D03*
Y0331988D03*
X0375491Y0351905D03*
Y0344425D03*
Y0366506D03*
Y0359025D03*
X0356091Y0391406D03*
Y0383925D03*
X0560335Y0325984D03*
Y0318504D03*
X0515255Y0318799D03*
Y0311319D03*
X0516928Y0325787D03*
Y0333268D03*
X058189Y0432776D03*
Y0440256D03*
X0618209Y0431989D03*
Y0424508D03*
X0625984Y0438878D03*
Y0431398D03*
X0545635Y0441558D03*
Y0449038D03*
X04247Y042368D03*
Y0431161D03*
X04325Y042368D03*
Y0431161D03*
X0480628Y0406636D03*
Y0414116D03*
X0596949Y0309842D03*
Y0302362D03*
X0488347Y0406636D03*
Y0414116D03*
X0618209Y0464764D03*
Y0457284D03*
X0625984Y0471654D03*
Y0464174D03*
X0531004Y0417717D03*
Y0425197D03*
X058189Y0465453D03*
Y0472934D03*
X04409Y0389121D03*
Y0396602D03*
X047286Y0389303D03*
Y0381823D03*
G54D129*
X0476123Y0560275D03*
Y0556535D03*
Y0552795D03*
X0466674D03*
Y0556535D03*
Y0560275D03*
X0333376Y0511829D03*
Y051557D03*
Y051931D03*
X0342825D03*
Y051557D03*
Y0511829D03*
G54D130*
X0481791Y0541634D03*
X0489272D03*
X0337795Y0450984D03*
X0345276D03*
X0287402Y0303642D03*
X0294882D03*
X0324833Y0565506D03*
X0332314D03*
X0326431Y0573265D03*
X0318951D03*
X0309151Y0316465D03*
X0316632D03*
X0254451Y0345702D03*
X0261931D03*
X0339051Y0571665D03*
X0346532D03*
X0350492Y0293602D03*
X0357972D03*
X0177833Y0358265D03*
X0170353D03*
X0298131Y0526665D03*
X0290651D03*
X0355231Y0563865D03*
X0347751D03*
X0209651Y0569365D03*
X0217131D03*
X02176Y0404365D03*
X021012D03*
X0215667Y0449565D03*
X0208187D03*
X02136Y0458365D03*
X020612D03*
X0293451Y0332365D03*
X0300932D03*
X0359744Y0328838D03*
X0367225D03*
X0363451Y0389665D03*
X0370932D03*
X0272051Y0376142D03*
X0279532D03*
X0341831Y0502264D03*
X0349311D03*
X0351101Y0494465D03*
X0358581D03*
X035374Y0531988D03*
X034626D03*
X0336701Y0494465D03*
X0344181D03*
X0268851Y0345702D03*
X0276331D03*
X0362697Y0510039D03*
X0355216D03*
X0287402Y0295866D03*
X0294882D03*
X0293851Y0356965D03*
X0301331D03*
X0180197Y0344765D03*
X0172717D03*
X0328651Y0356665D03*
X0336132D03*
X0328051Y0367065D03*
X0335531D03*
X0364469Y0502264D03*
X0356988D03*
X059065Y0480315D03*
X0583169D03*
X0588681Y0447638D03*
X0581201D03*
X0595669Y0447933D03*
X060315D03*
X0596555Y0427658D03*
X0589075D03*
X0654841Y0328235D03*
X0662321D03*
X052933Y0440453D03*
X0536811D03*
X0660335Y0469488D03*
X0652854D03*
X0596555Y0460434D03*
X0589075D03*
X0457181Y0424588D03*
X0449701D03*
X0597638Y0480709D03*
X0605118D03*
X062628Y0401279D03*
X0618799D03*
X0582579Y0392618D03*
X0575098D03*
X0582579Y0400393D03*
X0575098D03*
G54D131*
X0422648Y0513794D03*
X0425404D03*
X042816D03*
X0430916D03*
X0433672D03*
X0469498D03*
X0472254D03*
X047501D03*
X0477766D03*
X0480522D03*
X0483278D03*
X0486034D03*
X048879D03*
X0491546D03*
X0494302D03*
X0497057D03*
X0499813D03*
X0502569D03*
X0436427D03*
X0439183D03*
X0441939D03*
X0444695D03*
X0447451D03*
X0450207D03*
X0452963D03*
X0455719D03*
X0458475D03*
X0461231D03*
X0463987D03*
X0466743D03*
G54D132*
X0464509Y0574735D03*
X0478288D03*
G54D133*
X0454173Y0558709D03*
Y0574851D03*
X0606299Y0303051D03*
Y0319193D03*
X0469027Y0404992D03*
Y0421134D03*
G54D134*
X0458268Y0535236D03*
Y0546653D03*
X0440705Y0322569D03*
Y0333986D03*
X0464542Y0377908D03*
Y0389325D03*
G54D135*
X0301391Y029648D03*
Y0291251D03*
X0236191Y0525179D03*
Y0519951D03*
X0234547Y0362933D03*
Y0357705D03*
X0327633Y0549114D03*
Y0554342D03*
X0221692Y0546825D03*
Y0541597D03*
X03486Y0520746D03*
Y0515518D03*
X0362795Y0486472D03*
Y0481244D03*
X0330217Y0506945D03*
Y0501717D03*
X0338991Y030188D03*
Y0296651D03*
X0160391Y041878D03*
Y0413551D03*
X0170823Y0413651D03*
Y041888D03*
X0240846Y0456945D03*
Y0451717D03*
X0237992Y0385772D03*
Y0391D03*
G54D136*
X0261977Y0579265D03*
X0267206D03*
X0231877Y0565965D03*
X0237105D03*
X0189203Y0359461D03*
X0183975D03*
X0243005Y0437465D03*
X0237777D03*
X0202377Y0395165D03*
X0207606D03*
X0296577Y0320965D03*
X0301805D03*
X0302406Y0363565D03*
X0297177D03*
X0296406Y0533265D03*
X0291177D03*
X0285677Y0568165D03*
X0290905D03*
X0205961Y0345669D03*
X0200732D03*
X0208417Y0528821D03*
X0203188D03*
X0181671Y047968D03*
X0176443D03*
X0240677Y0502665D03*
X0245905D03*
Y0496265D03*
X0240677D03*
X0327377Y0342765D03*
X0332606D03*
X0181705Y0471965D03*
X0176477D03*
G54D137*
X024944Y0575414D03*
X0245743Y0571717D03*
G54D138*
X0289282Y0552376D03*
X028789Y0553768D03*
X0286498Y055516D03*
X0285106Y0556552D03*
X0283714Y0557944D03*
X0282322Y0559336D03*
X028093Y0560728D03*
X0279538Y056212D03*
X0278146Y0563512D03*
X0276754Y0564904D03*
X0275362Y0566296D03*
X027397Y0567688D03*
X0272578Y056908D03*
X0271186Y0570472D03*
X0269794Y0571864D03*
X0268402Y0573255D03*
X0237501Y0542354D03*
X0238893Y0540962D03*
X0240285Y0539571D03*
X0241677Y0538178D03*
X0243069Y0536787D03*
X0244461Y0535395D03*
X0245853Y0534003D03*
X0247245Y0532611D03*
X0248637Y0531219D03*
X0250029Y0529827D03*
X0251421Y0528435D03*
X0252813Y0527043D03*
X0254205Y0525651D03*
X0255596Y0524259D03*
X0256988Y0522867D03*
X025838Y0521475D03*
G54D139*
X025838Y0573255D03*
X0256988Y0571864D03*
X0255596Y0570472D03*
X0254205Y056908D03*
X0252813Y0567688D03*
X0251421Y0566296D03*
X0250029Y0564904D03*
X0248637Y0563512D03*
X0247245Y056212D03*
X0245853Y0560728D03*
X0244461Y0559336D03*
X0243069Y0557944D03*
X0241677Y0556552D03*
X0240285Y055516D03*
X0238893Y0553768D03*
X0237501Y0552376D03*
X0268402Y0521475D03*
X0269794Y0522867D03*
X0271186Y0524259D03*
X0272578Y0525651D03*
X027397Y0527043D03*
X0275362Y0528435D03*
X0276754Y0529827D03*
X0278146Y0531219D03*
X0279538Y0532611D03*
X028093Y0534003D03*
X0282322Y0535395D03*
X0283714Y0536787D03*
X0285106Y0538178D03*
X0286498Y0539571D03*
X028789Y0540962D03*
X0289282Y0542354D03*
G54D140*
X0252591Y0430117D03*
X0247591D03*
X0242591D03*
X0237591D03*
X0252591Y0411613D03*
X0247591D03*
X0242591D03*
X0237591D03*
X0322491Y0366817D03*
X0317491D03*
X0312491D03*
X0307491D03*
X0322491Y0348313D03*
X0317491D03*
X0312491D03*
G54D141*
X0174626Y0338265D03*
X0336889Y0487165D03*
X0600984Y0395295D03*
G54D142*
X0174626Y0333265D03*
Y0328265D03*
Y0323265D03*
X019313Y0338265D03*
Y0333265D03*
Y0328265D03*
Y0323265D03*
X0336889Y0482165D03*
Y0477165D03*
Y0472165D03*
X0355393Y0487165D03*
Y0482165D03*
Y0477165D03*
Y0472165D03*
X0327543Y0322965D03*
Y0327965D03*
Y0332965D03*
Y0337965D03*
X0309039Y0322965D03*
Y0327965D03*
Y0332965D03*
Y0337965D03*
X0619488Y0380295D03*
Y0385295D03*
Y0390295D03*
Y0395295D03*
X0600984Y0380295D03*
Y0385295D03*
Y0390295D03*
X0458271Y0403047D03*
Y0408047D03*
Y0413047D03*
Y0418047D03*
X0439767Y0403047D03*
Y0408047D03*
Y0413047D03*
Y0418047D03*
G54D143*
X0183214Y0366645D03*
X0185773D03*
X0188332D03*
X0190891D03*
X019345D03*
X0196009D03*
X0198568D03*
X0183214Y0389086D03*
X0185773D03*
X0188332D03*
X0190891D03*
X019345D03*
X0196009D03*
X0198568D03*
G54D144*
X0189857Y0344803D03*
X0186117Y0353071D03*
X0193597D03*
X023909Y0320993D03*
X024283Y0312725D03*
X023535D03*
X0238991Y0342332D03*
X0235251Y0350599D03*
X0242731D03*
X0222991Y0342332D03*
X0219251Y0350599D03*
X0226731D03*
X0165591Y0565332D03*
X0161851Y0573599D03*
X0169332D03*
X0363189Y0321555D03*
X0355709D03*
X0359449Y0313287D03*
X0216893Y0539173D03*
X0220633Y0530905D03*
X0213153D03*
X0225394Y0306496D03*
X0229134Y0298228D03*
X0221654D03*
X023937Y0306496D03*
X024311Y0298228D03*
X023563D03*
X017223Y049142D03*
X017971D03*
X017597Y0499687D03*
X0611811Y0431989D03*
X0604331D03*
X0608071Y0423721D03*
X0466272Y0326598D03*
X0462532Y0334866D03*
X0470012D03*
X0608071Y0456496D03*
X0604331Y0464764D03*
X0611811D03*
G54D145*
X0222244Y0316757D03*
X0213976Y0313017D03*
Y0320498D03*
X0253525Y0375765D03*
X0245257Y0372025D03*
Y0379505D03*
X0253525Y0389565D03*
X0245257Y0385825D03*
Y0393305D03*
X0246986Y0464505D03*
Y0457025D03*
X0255254Y0460765D03*
X0371225Y0399765D03*
X0362958Y0396025D03*
Y0403506D03*
Y0304628D03*
X0371225Y0308368D03*
Y0300887D03*
X0256958Y0368565D03*
X0265225Y0372305D03*
Y0364825D03*
X0158984Y0481008D03*
X0167252Y0484748D03*
Y0477268D03*
X0589567Y0441536D03*
Y0434056D03*
X0597835Y0437796D03*
X0542795Y0454623D03*
X0534527Y0450883D03*
Y0458363D03*
X0589567Y0474312D03*
Y0466831D03*
X0597835Y0470571D03*
X0582873Y0410532D03*
X0591141Y0414272D03*
Y0406791D03*
G54D146*
X0261964Y0321191D03*
X0271019D03*
G54D147*
X0266491Y0336939D03*
G54D148*
X0308971Y028775D03*
Y0290309D03*
Y0292868D03*
Y0295427D03*
X0331412Y0308222D03*
Y0310781D03*
X0308971D03*
Y0308222D03*
Y0305663D03*
Y0303104D03*
Y0300545D03*
Y0297986D03*
X0331412Y0305663D03*
Y0303104D03*
Y0300545D03*
Y0297986D03*
Y0295427D03*
Y0292868D03*
Y0290309D03*
Y028775D03*
G54D149*
X0302491Y0512925D03*
X0297491D03*
X0292491D03*
X0287491D03*
X0282491D03*
X0277491D03*
X0272491D03*
X0267491D03*
X0302491Y0494028D03*
X0297491D03*
X0292491D03*
X0287491D03*
X0282491D03*
X0277491D03*
X0272491D03*
X0267491D03*
X0523484Y0312992D03*
X0528484D03*
X0533484D03*
X0538484D03*
X0543484D03*
X0548484D03*
X0553484D03*
X0523484Y033189D03*
X0528484D03*
X0533484D03*
X0538484D03*
X0543484D03*
X0548484D03*
X0553484D03*
G54D150*
X0307491Y0348313D03*
G54D151*
X0371027Y0560703D03*
Y0574679D03*
X060748Y0401476D03*
Y0415453D03*
X0590354Y0401083D03*
Y0387106D03*
X0598917Y0401476D03*
Y0415453D03*
G54D152*
X0341036Y0545821D03*
X0335747Y055111D03*
G54D153*
X0280791Y0477989D03*
Y0484761D03*
X0288591Y0477989D03*
Y0484761D03*
X0272991Y0477989D03*
Y0484761D03*
X0265218Y0477955D03*
Y0484727D03*
X0296351Y0477989D03*
Y0484761D03*
X0304091Y0477989D03*
Y0484761D03*
X0311891Y0477989D03*
Y0484761D03*
X04169Y0430806D03*
Y0424035D03*
G54D154*
X0239765Y0284365D03*
X0211418D03*
X0182973Y0515551D03*
X0211319D03*
G54D155*
X0342973Y0465499D03*
Y046294D03*
Y0460381D03*
Y0457822D03*
X0359509Y0465499D03*
Y046294D03*
Y0460381D03*
Y0457822D03*
G54D156*
X0158091Y0426261D03*
X0163091D03*
X0168091D03*
X0173091D03*
X0178091D03*
X0183091D03*
X0188091D03*
X0193091D03*
X0158091Y0463269D03*
X0163091D03*
X0168091D03*
X0173091D03*
X0178091D03*
X0183091D03*
X0188091D03*
X0193091D03*
G54D157*
X0160991Y0379165D03*
Y0403165D03*
G54D158*
X0294707Y0504765D03*
Y0502165D03*
X0289506D03*
Y0504765D03*
X0273901D03*
Y0502165D03*
X0279102D03*
Y0504765D03*
X0284304D03*
Y0502165D03*
X03Y0502243D03*
Y0504843D03*
G54D159*
X054439Y0482283D03*
X0530413D03*
X062687Y044754D03*
X0612894D03*
X053045Y0473735D03*
X0544426D03*
X0520472Y0437402D03*
X0506496D03*
X0604725Y047254D03*
X0618701D03*
X0604724Y0439764D03*
X0618701D03*
X0626083Y0480119D03*
X0612106D03*
G54D160*
X0653543Y0351279D03*
Y0379921D03*
X0673228Y0409055D03*
Y0438976D03*
G54D161*
X0628937Y0342303D03*
Y0360256D03*
Y0370945D03*
Y0388898D03*
X0648622Y0418032D03*
Y0400079D03*
Y0447953D03*
Y043D03*
G54D162*
X0584202Y0367421D03*
Y0343209D03*
G54D163*
X0604862Y0367421D03*
Y0343209D03*
G54D164*
X0658465Y0318898D03*
X0642323D03*
X0501883Y0448269D03*
X0518024D03*
X0541535Y0430709D03*
X0557677D03*
Y0418307D03*
X0541535D03*
G54D165*
X0481345Y039042D03*
X0493156D03*
G54D166*
X048725Y0389094D03*
G54D167*
X048725Y0379495D03*
G54D168*
X0453669Y0345696D03*
Y0368893D03*
G54D169*
X0533268Y046496D03*
X0544685D03*
X0648917Y0461122D03*
X0660335D03*
X0614961Y0409646D03*
X0626378D03*
G54D170*
X0443572Y0455394D03*
X0482941D03*
G54D171*
X0513681Y0403805D03*
G54D172*
X0522736Y0427716D03*
X0513681D03*
X0504626D03*
G54D173*
X049929Y0461357D03*
Y0479073D03*
G54D174*
X0503498Y0562063D03*
Y0572063D03*
Y0552063D03*
Y0542063D03*
X0421798Y0542463D03*
Y0552463D03*
Y0572463D03*
Y0562463D03*
X0210191Y0577165D03*
X0220191D03*
X0230191D03*
X0240191D03*
X0356891Y0376565D03*
X0366891Y0366565D03*
X0356891D03*
X0366891Y0356565D03*
X0356891D03*
X0366891Y0346565D03*
X0356891D03*
X0366891Y0336565D03*
X0356891D03*
X0307891Y0468265D03*
X0297891D03*
X0287891D03*
X0277891D03*
X0267891D03*
X0307891Y0448265D03*
X0297891D03*
X0287891D03*
X0277891D03*
X0267891D03*
Y0417165D03*
X0277891D03*
X0287891D03*
X0297891D03*
X0307891D03*
X0267891Y0437165D03*
X0277891D03*
X0287891D03*
X0297891D03*
X0307891D03*
Y0406065D03*
X0297891D03*
X0287891D03*
X0277891D03*
X0267891D03*
X0307891Y0386065D03*
X0297891D03*
X0287891D03*
X0277891D03*
X0267891D03*
X0559272Y0294744D03*
Y0284744D03*
X0549272Y0294744D03*
Y0284744D03*
X0539272Y0294744D03*
Y0284744D03*
X0529272Y0294744D03*
Y0284744D03*
X0519272Y0294744D03*
G54D175*
X0503498Y0532063D03*
X0421798Y0532463D03*
X0517851Y0461417D03*
G54D176*
X0145276Y0430315D03*
X0136614Y0433465D03*
X0145276Y0424016D03*
X0136614Y0420866D03*
Y0427165D03*
G54D177*
X0140945Y0410827D03*
Y0443504D03*
G54D178*
X0194291Y0302665D03*
Y0551665D03*
G54D179*
X0369291Y0427165D03*
G54D180*
X0187197Y049969D03*
G54D181*
X0169102Y0517785D03*
G54D182*
X0200191Y0577165D03*
X0519272Y0284744D03*
G54D183*
X0253465Y0287098D03*
X0275118D03*
Y0303633D03*
X0253465D03*
X0626968Y0595472D03*
X0648622D03*
X0405673Y0344727D03*
X0427327D03*
Y0361262D03*
X0405673D03*
X0598425Y0595472D03*
X0576772D03*
G54D184*
X0366891Y0376565D03*
G54D185*
X0208033Y046787D03*
X022575D03*
Y0493461D03*
X0208033D03*
Y041437D03*
X022575D03*
Y0439961D03*
X0208033D03*
Y036087D03*
X022575D03*
Y0386461D03*
X0208033D03*
G54D186*
X024249Y0489814D03*
Y0509027D03*
G54D187*
X0560335Y0392027D03*
X042276Y0387435D03*
X0538287Y0358268D03*
X0479331Y0349803D03*
G54D188*
X054065Y0392027D03*
X0518602Y0358268D03*
X0499016Y0349803D03*
G54D189*
X0606063Y0285138D03*
G54D190*
X0596063Y0285138D03*
X0586063D03*
X0486Y0297094D03*
X0481Y0287094D03*
X0476Y0297094D03*
X0471Y0287094D03*
X0466Y0297094D03*
X0461Y0287094D03*
G54D191*
X0549902Y0508382D03*
X0597244Y0575083D03*
X0573622D03*
X0644488Y0501D03*
X0620866Y0501098D03*
G54D192*
X0549902Y0582555D03*
X0597244Y0500909D03*
X0573622D03*
X0644488Y0575173D03*
X0620866Y0575272D03*
G54D193*
X0517851Y0469291D03*
G54D194*
X0411417Y0287402D03*
Y0470472D03*
X0675197Y059252D03*
Y0287402D03*
G54D195*
X040884Y0401354D03*
G54D196*
X0677165Y0507146D03*
Y0480531D03*
Y0565728D03*
Y0539114D03*
G54D197*
X0625591Y0281496D03*
Y030315D03*
X0642126D03*
Y0281496D03*
M02*